<svg xmlns="http://www.w3.org/2000/svg" width="640" height="420" viewBox="0 0 640 420">
    <defs>
      <linearGradient id="g" x1="0" y1="0" x2="1" y2="1">
        <stop offset="0%" stop-color="#0b1220"/>
        <stop offset="100%" stop-color="#15233d"/>
      </linearGradient>
      <linearGradient id="bar" x1="0" y1="0" x2="1" y2="0">
        <stop offset="0%" stop-color="#1f2f4f"/>
        <stop offset="100%" stop-color="#16243f"/>
      </linearGradient>
      <filter id="shadow" x="-20%" y="-20%" width="140%" height="140%">
        <feDropShadow dx="0" dy="8" stdDeviation="10" flood-color="#000" flood-opacity="0.28"/>
      </filter>
    </defs>
    <rect width="640" height="420" rx="28" fill="url(#g)"/>
    <g opacity="0.08" stroke="#9cc7ff" stroke-width="1">
      <path d="M0 70H640"/><path d="M0 140H640"/><path d="M0 210H640"/><path d="M0 280H640"/><path d="M0 350H640"/>
      <path d="M90 0V420"/><path d="M180 0V420"/><path d="M270 0V420"/><path d="M360 0V420"/><path d="M450 0V420"/><path d="M540 0V420"/>
    </g>
    <rect x="20" y="20" width="600" height="300" rx="24" fill="#111b2e" stroke="#223555" stroke-width="2" filter="url(#shadow)"/>
    
<g transform="translate(56,44)">
  <g fill="#162846" stroke="#8fd3ff" stroke-width="3">
    <polygon points="90,150 170,60 260,105 235,215 130,232"/>
    <polygon points="260,105 345,55 430,125 356,225 235,215" stroke="#b7ffda"/>
    <polygon points="170,60 250,18 345,55 260,105" stroke="#7c5cff"/>
  </g>
  <g stroke="#ffd166" stroke-width="2" opacity="0.9">
    <path d="M130 232L356 225"/><path d="M90 150L430 125"/>
    <path d="M170 60L235 215" stroke-dasharray="6 6"/>
    <path d="M260 105L130 232" stroke-dasharray="6 6"/>
  </g>
  <g fill="#ff7aa2">
    <circle cx="170" cy="60" r="5"/><circle cx="260" cy="105" r="5"/><circle cx="345" cy="55" r="5"/>
  </g>
</g>
    <rect x="20" y="336" width="600" height="64" rx="18" fill="url(#bar)" stroke="#25365b"/>
    <text x="44" y="378" fill="#eaf3ff" font-family="Manrope, Segoe UI, Arial" font-size="28" font-weight="700">Geometria Cristalográfica</text>
    </svg>