<svg xmlns="http://www.w3.org/2000/svg" width="640" height="420" viewBox="0 0 640 420">
  <defs>
    <linearGradient id="bg" x1="0" y1="0" x2="1" y2="1">
      <stop offset="0%" stop-color="#0b1220"/>
      <stop offset="100%" stop-color="#15233d"/>
    </linearGradient>

    <linearGradient id="bar" x1="0" y1="0" x2="1" y2="0">
      <stop offset="0%" stop-color="#1f2f4f"/>
      <stop offset="100%" stop-color="#16243f"/>
    </linearGradient>

    <linearGradient id="metaballFill" x1="0.18" y1="0.08" x2="0.86" y2="0.88">
      <stop offset="0%" stop-color="#ff504d"/>
      <stop offset="34%" stop-color="#d22c71"/>
      <stop offset="58%" stop-color="#5d1f9f"/>
      <stop offset="84%" stop-color="#0c1d97"/>
      <stop offset="100%" stop-color="#08135e"/>
    </linearGradient>

    <filter id="shadow" x="-20%" y="-20%" width="140%" height="140%">
      <feDropShadow dx="0" dy="8" stdDeviation="10" flood-color="#000" flood-opacity="0.28"/>
    </filter>

    <filter id="softShadow" x="-30%" y="-30%" width="160%" height="180%">
      <feDropShadow dx="0" dy="11" stdDeviation="9" flood-color="#000" flood-opacity="0.34"/>
    </filter>

    <filter id="innerShade" x="-20%" y="-20%" width="140%" height="140%">
      <feGaussianBlur in="SourceAlpha" stdDeviation="7" result="blur"/>
      <feOffset dx="0" dy="8" result="off"/>
      <feComposite in="off" in2="SourceAlpha" operator="out" result="inner"/>
      <feColorMatrix in="inner" type="matrix" values="0 0 0 0 0  0 0 0 0 0  0 0 0 0 0  0 0 0 .35 0" result="shade"/>
      <feBlend in="SourceGraphic" in2="shade" mode="multiply"/>
    </filter>

    <radialGradient id="highlight" cx="30%" cy="18%" r="75%">
      <stop offset="0%" stop-color="#ffffff" stop-opacity="0.23"/>
      <stop offset="30%" stop-color="#ffffff" stop-opacity="0.08"/>
      <stop offset="65%" stop-color="#ffffff" stop-opacity="0"/>
      <stop offset="100%" stop-color="#ffffff" stop-opacity="0"/>
    </radialGradient>

    <clipPath id="previewClip">
      <rect x="20" y="20" width="600" height="300" rx="24"/>
    </clipPath>
  </defs>

  <rect width="640" height="420" rx="28" fill="url(#bg)"/>

  <g opacity="0.08" stroke="#9cc7ff" stroke-width="1">
    <path d="M0 70H640"/><path d="M0 140H640"/><path d="M0 210H640"/><path d="M0 280H640"/><path d="M0 350H640"/>
    <path d="M90 0V420"/><path d="M180 0V420"/><path d="M270 0V420"/><path d="M360 0V420"/><path d="M450 0V420"/><path d="M540 0V420"/>
  </g>

  <rect x="20" y="20" width="600" height="300" rx="24" fill="#111b2e" stroke="#223555" stroke-width="2" filter="url(#shadow)"/>

  <g clip-path="url(#previewClip)">
    <g>
      
      
      
    </g>

    <g>
      
      
      
    </g>

    <g>
      
      
      
      
    </g>
  </g>

  <rect x="20" y="336" width="600" height="64" rx="18" fill="url(#bar)" stroke="#25365b"/>
  <text x="44" y="378" fill="#eaf3ff" font-family="Manrope, Segoe UI, Arial" font-size="28" font-weight="700">Título</text>
</svg>