<svg xmlns="http://www.w3.org/2000/svg" width="640" height="420" viewBox="0 0 640 420">
  <defs>
    <linearGradient id="g" x1="0" y1="0" x2="1" y2="1">
      <stop offset="0%" stop-color="#0b1220"/>
      <stop offset="100%" stop-color="#15233d"/>
    </linearGradient>
    <linearGradient id="bar" x1="0" y1="0" x2="1" y2="0">
      <stop offset="0%" stop-color="#1f2f4f"/>
      <stop offset="100%" stop-color="#16243f"/>
    </linearGradient>
    <filter id="shadow" x="-20%" y="-20%" width="140%" height="140%">
      <feDropShadow dx="0" dy="8" stdDeviation="10" flood-color="#000" flood-opacity="0.28"/>
    </filter>
  </defs>
  <rect width="640" height="420" rx="28" fill="url(#g)"/>
  <g opacity="0.08" stroke="#9cc7ff" stroke-width="1">
    <path d="M0 70H640"/><path d="M0 140H640"/><path d="M0 210H640"/><path d="M0 280H640"/><path d="M0 350H640"/>
    <path d="M90 0V420"/><path d="M180 0V420"/><path d="M270 0V420"/><path d="M360 0V420"/><path d="M450 0V420"/><path d="M540 0V420"/>
  </g>
  <rect x="20" y="20" width="600" height="300" rx="24" fill="#111b2e" stroke="#223555" stroke-width="2" filter="url(#shadow)"/>
  
  <g transform="translate(44,44)">
    <rect x="0" y="0" width="552" height="248" rx="22" fill="#131f36" stroke="#243a60" stroke-width="2"/>
    <g transform="translate(22,18)">
      <rect x="0" y="0" width="244" height="212" rx="18" fill="#172744" stroke="#29456f"/>
      <path d="M122 0 v212 M0 106 h244" stroke="#304f7e" stroke-width="2" stroke-dasharray="6 8"/>
      <path d="M0 44 C44 44 44 0 88 0 L122 0 L122 44 C122 88 166 88 166 44 L166 0 L244 0 L244 212 L0 212 Z"
            fill="#1e3254" opacity="0.45"/>
      <g transform="translate(34,28)">
        <circle cx="28" cy="28" r="22" fill="#7fd0ff"/><text x="28" y="35" text-anchor="middle" font-size="22" font-weight="700" fill="#0b1220">Na</text>
        <circle cx="150" cy="28" r="22" fill="#ff8fb0"/><text x="150" y="35" text-anchor="middle" font-size="22" font-weight="700" fill="#0b1220">Cl</text>
        <circle cx="28" cy="134" r="22" fill="#b6ffd5"/><text x="28" y="141" text-anchor="middle" font-size="18" font-weight="700" fill="#0b1220">e⁻</text>
        <circle cx="150" cy="134" r="22" fill="#ffd166"/><text x="150" y="141" text-anchor="middle" font-size="18" font-weight="700" fill="#0b1220">H</text>
      </g>
    </g>
    <g transform="translate(292,18)">
      <rect x="0" y="0" width="238" height="212" rx="18" fill="#172744" stroke="#29456f"/>
      <path d="M44 64 L96 64 L96 20 L150 20 L150 64 L194 64 L194 116 L150 116 L150 162 L96 162 L96 116 L44 116 Z"
            fill="#20385d" stroke="#8fd3ff" stroke-width="3"/>
      <path d="M118 74 L150 56" stroke="#ffd166" stroke-width="4"/>
      <path d="M118 106 C138 118 158 118 178 106" fill="none" stroke="#ff8fb0" stroke-width="4"/>
      <circle cx="118" cy="92" r="14" fill="#7fd0ff"/><text x="118" y="97" text-anchor="middle" font-size="14" font-weight="700" fill="#08111f">M</text>
      <circle cx="164" cy="48" r="12" fill="#ffd166"/><text x="164" y="52" text-anchor="middle" font-size="12" font-weight="700" fill="#08111f">L</text>
      <circle cx="186" cy="92" r="12" fill="#ff8fb0"/><text x="186" y="96" text-anchor="middle" font-size="11" font-weight="700" fill="#08111f">L'</text>
      <text x="20" y="194" fill="#b7cfff" font-size="18">arraste • combine • compare</text>
    </g>
  </g>

  <rect x="20" y="336" width="600" height="64" rx="18" fill="url(#bar)" stroke="#25365b"/>
  <text x="44" y="378" fill="#eaf3ff" font-family="Manrope, Segoe UI, Arial" font-size="28" font-weight="700">Quebra-cabeça Iônico Covalente</text>
</svg>