<svg xmlns="http://www.w3.org/2000/svg" width="640" height="420" viewBox="0 0 640 420">
    <defs>
      <linearGradient id="g" x1="0" y1="0" x2="1" y2="1">
        <stop offset="0%" stop-color="#0b1220"/>
        <stop offset="100%" stop-color="#15233d"/>
      </linearGradient>
      <linearGradient id="bar" x1="0" y1="0" x2="1" y2="0">
        <stop offset="0%" stop-color="#1f2f4f"/>
        <stop offset="100%" stop-color="#16243f"/>
      </linearGradient>
      <filter id="shadow" x="-20%" y="-20%" width="140%" height="140%">
        <feDropShadow dx="0" dy="8" stdDeviation="10" flood-color="#000" flood-opacity="0.28"/>
      </filter>
    </defs>
    <rect width="640" height="420" rx="28" fill="url(#g)"/>
    <g opacity="0.08" stroke="#9cc7ff" stroke-width="1">
      <path d="M0 70H640"/><path d="M0 140H640"/><path d="M0 210H640"/><path d="M0 280H640"/><path d="M0 350H640"/>
      <path d="M90 0V420"/><path d="M180 0V420"/><path d="M270 0V420"/><path d="M360 0V420"/><path d="M450 0V420"/><path d="M540 0V420"/>
    </g>
    <rect x="20" y="20" width="600" height="300" rx="24" fill="#111b2e" stroke="#223555" stroke-width="2" filter="url(#shadow)"/>
    
<g transform="translate(88,44)">
  <g stroke="#27426e" stroke-width="2" opacity="0.8">
    <path d="M0 40H460"/><path d="M0 100H460"/><path d="M0 160H460"/><path d="M0 220H460"/>
    <path d="M40 0V260"/><path d="M140 0V260"/><path d="M240 0V260"/><path d="M340 0V260"/><path d="M440 0V260"/>
  </g>
  <g stroke="#8fd3ff" stroke-width="3" opacity="0.9">
    <path d="M40 40L140 100L240 40L340 100L440 40" fill="none"/>
    <path d="M40 160L140 220L240 160L340 220L440 160" fill="none"/>
    <path d="M40 40L40 160"/><path d="M140 100L140 220"/><path d="M240 40L240 160"/><path d="M340 100L340 220"/><path d="M440 40L440 160"/>
  </g>
  <g fill="#b7ffda">
    <circle cx="40" cy="40" r="7"/><circle cx="140" cy="100" r="7"/><circle cx="240" cy="40" r="7"/><circle cx="340" cy="100" r="7"/><circle cx="440" cy="40" r="7"/>
    <circle cx="40" cy="160" r="7"/><circle cx="140" cy="220" r="7"/><circle cx="240" cy="160" r="7"/><circle cx="340" cy="220" r="7"/><circle cx="440" cy="160" r="7"/>
  </g>
  <rect x="310" y="6" width="150" height="34" rx="10" fill="#162744" stroke="#27426e"/>
  <text x="324" y="29" fill="#ffd166" font-size="20" font-family="Manrope, Arial">translação</text>
</g>
    <rect x="20" y="336" width="600" height="64" rx="18" fill="url(#bar)" stroke="#25365b"/>
    <text x="44" y="378" fill="#eaf3ff" font-family="Manrope, Segoe UI, Arial" font-size="28" font-weight="700">Redes Cristalinas</text>
    </svg>