<svg xmlns="http://www.w3.org/2000/svg" width="640" height="420" viewBox="0 0 640 420" preserveAspectRatio="xMidYMid meet" data-editor-original-width="640" data-editor-original-height="420" style="width: 516.571px; height: 339px;">
  <defs>
    <linearGradient id="bg" x1="0" y1="0" x2="1" y2="1" data-layer-name="lineargradient#bg">
      <stop offset="0%" stop-color="#0b1220" data-layer-name="stop 3"/>
      <stop offset="100%" stop-color="#15233d" data-layer-name="stop 4"/>
    </linearGradient>
    <linearGradient id="bar" x1="0" y1="0" x2="1" y2="0" data-layer-name="lineargradient#bar">
      <stop offset="0%" stop-color="#1f2f4f" data-layer-name="stop 6"/>
      <stop offset="100%" stop-color="#16243f" data-layer-name="stop 7"/>
    </linearGradient>
    <filter id="shadow" x="-20%" y="-20%" width="140%" height="140%" data-layer-name="filter#shadow">
      <feDropShadow dx="0" dy="8" stdDeviation="10" flood-color="#000" flood-opacity="0.28" data-layer-name="fedropshadow 9"/>
    </filter>
    <clipPath id="previewClip" data-layer-name="clippath#previewClip">
      <rect x="20" y="20" width="600" height="300" rx="24" data-layer-name="rect 11"/>
    </clipPath>
    <radialGradient id="glowA" cx="25%" cy="20%" r="75%" data-layer-name="radialgradient#glowA">
      <stop offset="0%" stop-color="#7c5cff" stop-opacity="0.24" data-layer-name="stop 13"/>
      <stop offset="60%" stop-color="#7c5cff" stop-opacity="0" data-layer-name="stop 14"/>
    </radialGradient>
    <radialGradient id="glowB" cx="70%" cy="30%" r="60%" data-layer-name="radialgradient#glowB">
      <stop offset="0%" stop-color="#ff7aa2" stop-opacity="0.16" data-layer-name="stop 16"/>
      <stop offset="60%" stop-color="#ff7aa2" stop-opacity="0" data-layer-name="stop 17"/>
    </radialGradient>
  </defs>
  <rect width="640" height="420" rx="28" fill="url(#bg)" data-layer-name="rect 18"/>
  <g opacity="0.08" stroke="#9cc7ff" stroke-width="1" data-layer-group="1" data-layer-name="g 19">
    <path d="M0 70H640" data-layer-name="path 20"/><path d="M0 140H640" data-layer-name="path 21"/><path d="M0 210H640" data-layer-name="path 22"/><path d="M0 280H640" data-layer-name="path 23"/><path d="M0 350H640" data-layer-name="path 24"/>
    <path d="M90 0V420" data-layer-name="path 25"/><path d="M180 0V420" data-layer-name="path 26"/><path d="M270 0V420" data-layer-name="path 27"/><path d="M360 0V420" data-layer-name="path 28"/><path d="M450 0V420" data-layer-name="path 29"/><path d="M540 0V420" data-layer-name="path 30"/>
  </g>
  <rect x="20" y="20" width="600" height="300" rx="24" fill="#111b2e" stroke="#223555" stroke-width="2" filter="url(#shadow)" data-layer-name="rect 31"/>
  <g clip-path="url(#previewClip)" data-layer-group="1" data-layer-name="g 32">
    <rect x="20" y="20" width="600" height="300" fill="url(#glowA)" data-layer-name="rect 33"/>
    <rect x="20" y="20" width="600" height="300" fill="url(#glowB)" data-layer-name="rect 34"/>
    
<g transform="translate(128,48)" data-layer-group="1" data-layer-name="g 35">
  <g stroke="#8fd3ff" stroke-width="4" fill="none" stroke-linejoin="round" data-layer-group="1" data-layer-name="g 36">
    <path d="M58 228L246 228L246 74L58 74Z" data-layer-name="path 37"/>
    <path d="M58 228L138 170L326 170L246 228" data-layer-name="path 38"/>
    <path d="M246 74L326 18L326 170" data-layer-name="path 39"/>
    <path d="M58 74L138 18L326 18" opacity="0.6" data-layer-name="path 40"/>
    <path d="M138 18L138 170" opacity="0.6" data-layer-name="path 41"/>
  </g>
  <g fill="#b7ffda" data-layer-group="1" data-layer-name="g 42">
    <circle cx="58" cy="228" r="12" data-layer-name="circle 43"/><circle cx="246" cy="228" r="12" data-layer-name="circle 44"/><circle cx="246" cy="74" r="12" data-layer-name="circle 45"/><circle cx="58" cy="74" r="12" data-layer-name="circle 46"/>
    <circle cx="138" cy="170" r="12" data-layer-name="circle 47"/><circle cx="326" cy="170" r="12" data-layer-name="circle 48"/><circle cx="326" cy="18" r="12" data-layer-name="circle 49"/><circle cx="138" cy="18" r="12" data-layer-name="circle 50"/>
  </g>
  <g fill="#ffd166" data-layer-group="1" data-layer-name="g 51">
    <circle cx="152" cy="74" r="14" data-layer-name="circle 52"/><circle cx="152" cy="228" r="14" data-layer-name="circle 53"/><circle cx="292" cy="122" r="14" data-layer-name="circle 54"/>
  </g>
  <g transform="translate(376,28)" font-family="Manrope, Arial" font-weight="700" data-layer-group="1" data-layer-name="g 55">
    
    
    
    
    
    
  </g>
</g>
  </g>
  <rect x="20" y="336" width="600" height="64" rx="18" fill="url(#bar)" stroke="#25365b" data-layer-name="rect 62"/>
  <text x="44" y="378" fill="#eaf3ff" font-family="Manrope, Segoe UI, Arial" font-size="24" font-weight="700" data-layer-name="text 63">Fórmula Unitária na Prática</text>
</svg>