<svg xmlns="http://www.w3.org/2000/svg" width="640" height="420" viewBox="0 0 640 420">
  <defs>
    <linearGradient id="bg" x1="0" y1="0" x2="1" y2="1">
      <stop offset="0%" stop-color="#0b1220"/>
      <stop offset="100%" stop-color="#15233d"/>
    </linearGradient>

    <linearGradient id="bar" x1="0" y1="0" x2="1" y2="0">
      <stop offset="0%" stop-color="#1f2f4f"/>
      <stop offset="100%" stop-color="#16243f"/>
    </linearGradient>

    <linearGradient id="metaballFill" x1="0.18" y1="0.08" x2="0.86" y2="0.88">
      <stop offset="0%" stop-color="#ff504d"/>
      <stop offset="34%" stop-color="#d22c71"/>
      <stop offset="58%" stop-color="#5d1f9f"/>
      <stop offset="84%" stop-color="#0c1d97"/>
      <stop offset="100%" stop-color="#08135e"/>
    </linearGradient>

    <filter id="shadow" x="-20%" y="-20%" width="140%" height="140%">
      <feDropShadow dx="0" dy="8" stdDeviation="10" flood-color="#000" flood-opacity="0.28"/>
    </filter>

    <filter id="softShadow" x="-30%" y="-30%" width="160%" height="180%">
      <feDropShadow dx="0" dy="11" stdDeviation="9" flood-color="#000" flood-opacity="0.34"/>
    </filter>

    <filter id="innerShade" x="-20%" y="-20%" width="140%" height="140%">
      <feGaussianBlur in="SourceAlpha" stdDeviation="7" result="blur"/>
      <feOffset dx="0" dy="8" result="off"/>
      <feComposite in="off" in2="SourceAlpha" operator="out" result="inner"/>
      <feColorMatrix in="inner" type="matrix" values="0 0 0 0 0  0 0 0 0 0  0 0 0 0 0  0 0 0 .35 0" result="shade"/>
      <feBlend in="SourceGraphic" in2="shade" mode="multiply"/>
    </filter>

    <radialGradient id="highlight" cx="30%" cy="18%" r="75%">
      <stop offset="0%" stop-color="#ffffff" stop-opacity="0.23"/>
      <stop offset="30%" stop-color="#ffffff" stop-opacity="0.08"/>
      <stop offset="65%" stop-color="#ffffff" stop-opacity="0"/>
      <stop offset="100%" stop-color="#ffffff" stop-opacity="0"/>
    </radialGradient>

    <clipPath id="previewClip">
      <rect x="20" y="20" width="600" height="300" rx="24"/>
    </clipPath>
  </defs>

  <rect width="640" height="420" rx="28" fill="url(#bg)"/>

  <g opacity="0.08" stroke="#9cc7ff" stroke-width="1">
    <path d="M0 70H640"/><path d="M0 140H640"/><path d="M0 210H640"/><path d="M0 280H640"/><path d="M0 350H640"/>
    <path d="M90 0V420"/><path d="M180 0V420"/><path d="M270 0V420"/><path d="M360 0V420"/><path d="M450 0V420"/><path d="M540 0V420"/>
  </g>

  <rect x="20" y="20" width="600" height="300" rx="24" fill="#111b2e" stroke="#223555" stroke-width="2" filter="url(#shadow)"/>

  <g clip-path="url(#previewClip)">
    <g>

    <g transform="translate(200 50) scale(0.46875)">
      <rect x="-12" y="-12" width="536" height="536" rx="28" fill="#0f1727" opacity="0.35"/>
<!-- Sky Background -->
  <rect width="512" height="512" fill="#1a1c2c"/>

  <!-- Stars -->
  <rect x="64" y="64" width="8" height="8" fill="#566c86"/>
  <rect x="128" y="32" width="8" height="8" fill="#94b0c2"/>
  <rect x="384" y="96" width="8" height="8" fill="#566c86"/>
  <rect x="448" y="48" width="8" height="8" fill="#94b0c2"/>
  <rect x="256" y="80" width="8" height="8" fill="#566c86"/>
  <rect x="96" y="32" width="8" height="8" fill="#94b0c2"/>
  <rect x="208" y="64" width="8" height="8" fill="#566c86"/>
  <rect x="320" y="48" width="8" height="8" fill="#d1dce8"/>

  <!-- Moon -->
  <g fill="#d1dce8">
    <path d="M400,64 h48 v16 h16 v48 h-16 v16 h-48 v-16 h-16 v-48 h16 z"/>
  </g>
  <g fill="#94b0c2">
    <rect x="416" y="80" width="16" height="16"/>
    <rect x="448" y="96" width="8" height="8"/>
    <rect x="408" y="104" width="16" height="8"/>
    <rect x="432" y="112" width="8" height="8"/>
  </g>

  <!-- Clouds -->
  <g fill="#29366f" opacity="0.5">
    <path d="M64,128 h64 v-16 h32 v16 h16 v16 h-112 z"/>
    <path d="M256,96 h48 v-16 h32 v16 h32 v16 h-112 z"/>
    <path d="M416,192 h64 v-16 h16 v16 h16 v16 h-96 z"/>
    <path d="M32,64 h48 v-16 h16 v16 h16 v16 h-80 z"/>
  </g>

  <!-- Laser Beam (Left Wing Roof) -->
  <rect x="84" y="0" width="8" height="224" fill="#a7f070"/>
  <rect x="86" y="0" width="4" height="224" fill="#ffffff"/>

  <!-- Ground -->
  <rect x="0" y="448" width="512" height="64" fill="#181425"/>
  <rect x="0" y="448" width="512" height="16" fill="#333c57"/>
  <rect x="0" y="464" width="512" height="8" fill="#29366f"/>

  <!-- MAIN BUILDING BASE -->
  <g>
    <!-- Core Structure -->
    <rect x="128" y="192" width="256" height="256" fill="#566c86"/>
    <!-- Shadows -->
    <rect x="352" y="192" width="32" height="256" fill="#333c57"/>
    <rect x="128" y="416" width="256" height="32" fill="#333c57"/>
    <!-- Highlights -->
    <rect x="128" y="192" width="16" height="224" fill="#94b0c2"/>
    <rect x="128" y="192" width="224" height="16" fill="#94b0c2"/>
    <!-- Brick Textures -->
    <rect x="160" y="208" width="16" height="8" fill="#333c57"/>
    <rect x="176" y="272" width="16" height="8" fill="#94b0c2"/>
    <rect x="352" y="208" width="16" height="8" fill="#94b0c2"/>
    <rect x="144" y="400" width="16" height="8" fill="#333c57"/>
    <rect x="336" y="384" width="16" height="8" fill="#333c57"/>
    <rect x="288" y="208" width="16" height="8" fill="#333c57"/>
    <rect x="192" y="384" width="16" height="8" fill="#94b0c2"/>
  </g>

  <!-- LEFT WING (Power/Servers) -->
  <g>
    <!-- Core Structure -->
    <rect x="48" y="288" width="80" height="160" fill="#566c86"/>
    <rect x="112" y="288" width="16" height="160" fill="#333c57"/>
    <rect x="48" y="432" width="80" height="16" fill="#333c57"/>
    <rect x="48" y="288" width="16" height="144" fill="#94b0c2"/>
    <rect x="48" y="288" width="64" height="16" fill="#94b0c2"/>
    <!-- Laser Mount -->
    <rect x="64" y="272" width="48" height="16" fill="#333c57"/>
    <rect x="80" y="256" width="16" height="16" fill="#566c86"/>
    <rect x="72" y="224" width="32" height="32" fill="#94b0c2"/>
    <rect x="72" y="224" width="8" height="32" fill="#d1dce8"/>
    <rect x="96" y="224" width="8" height="32" fill="#566c86"/>
    <!-- Server Details -->
    <rect x="64" y="320" width="40" height="96" fill="#181425"/>
    <rect x="72" y="328" width="8" height="8" fill="#e43b44"/>
    <rect x="88" y="328" width="8" height="8" fill="#feae34"/>
    <rect x="72" y="344" width="8" height="8" fill="#38b764"/>
    <rect x="88" y="344" width="8" height="8" fill="#e43b44"/>
    <rect x="72" y="360" width="24" height="16" fill="#41a6f6"/>
    <rect x="72" y="384" width="24" height="24" fill="#333c57"/>
    <path d="M80,336 v16 h16" fill="none" stroke="#333c57" stroke-width="4"/>
  </g>

  <!-- RIGHT WING (Containment Silo) -->
  <g>
    <!-- Core Structure -->
    <rect x="384" y="256" width="80" height="192" fill="#566c86"/>
    <rect x="448" y="256" width="16" height="192" fill="#333c57"/>
    <rect x="384" y="432" width="80" height="16" fill="#333c57"/>
    <rect x="384" y="256" width="16" height="176" fill="#94b0c2"/>
    <rect x="384" y="256" width="64" height="16" fill="#94b0c2"/>
    <!-- Silo Bands -->
    <rect x="384" y="288" width="80" height="16" fill="#333c57"/>
    <rect x="384" y="352" width="80" height="16" fill="#333c57"/>
    <rect x="384" y="416" width="80" height="16" fill="#333c57"/>
    <!-- Glass Specimen Tube -->
    <rect x="400" y="288" width="48" height="128" fill="#14342b"/>
    <!-- Specimen (Alien Brain) -->
    <path d="M416,312 h16 v8 h8 v16 h-8 v8 h-16 v-8 h-8 v-16 h8 z" fill="#b55088"/>
    <path d="M416,328 h16 v8 h-16 z" fill="#68386c"/>
    <rect x="420" y="344" width="8" height="32" fill="#b55088"/>
    <rect x="424" y="344" width="4" height="32" fill="#68386c"/>
    <!-- Bubbles -->
    <rect x="408" y="384" width="8" height="8" fill="#a7f070"/>
    <rect x="424" y="352" width="16" height="16" fill="#38b764"/>
    <rect x="416" y="320" width="8" height="8" fill="#a7f070"/>
    <rect x="432" y="304" width="8" height="8" fill="#38b764"/>
    <!-- Tube Glass Highlights -->
    <rect x="400" y="288" width="16" height="128" fill="#207842" opacity="0.6"/>
    <rect x="408" y="288" width="8" height="128" fill="#38b764" opacity="0.6"/>
  </g>

  <!-- ROOF DOME (Observatory) -->
  <g>
    <!-- Dome Base -->
    <rect x="192" y="160" width="128" height="32" fill="#566c86"/>
    <rect x="208" y="144" width="96" height="16" fill="#566c86"/>
    <rect x="224" y="128" width="64" height="16" fill="#566c86"/>
    <!-- Dome Shadows/Highlights -->
    <rect x="192" y="160" width="16" height="32" fill="#94b0c2"/>
    <rect x="208" y="144" width="16" height="16" fill="#94b0c2"/>
    <rect x="304" y="160" width="16" height="32" fill="#333c57"/>
    <rect x="288" y="144" width="16" height="16" fill="#333c57"/>
    <!-- Dome Glass -->
    <rect x="208" y="160" width="96" height="32" fill="#14342b"/>
    <rect x="224" y="144" width="64" height="16" fill="#14342b"/>
    <!-- Glass Glow / Reflections -->
    <rect x="224" y="160" width="16" height="32" fill="#207842"/>
    <rect x="240" y="144" width="32" height="48" fill="#38b764"/>
    <rect x="256" y="144" width="16" height="16" fill="#a7f070"/>
    <rect x="240" y="160" width="16" height="16" fill="#a7f070"/>
  </g>

  <!-- ANTENNA (Right Wing Roof) -->
  <g>
    <rect x="416" y="240" width="32" height="16" fill="#333c57"/>
    <rect x="424" y="128" width="16" height="112" fill="#333c57"/>
    <rect x="424" y="128" width="8" height="112" fill="#566c86"/>
    <rect x="408" y="160" width="48" height="16" fill="#566c86"/>
    <rect x="392" y="144" width="16" height="16" fill="#566c86"/>
    <rect x="456" y="144" width="16" height="16" fill="#566c86"/>
    <rect x="424" y="112" width="16" height="16" fill="#e43b44"/> <!-- Blinking Light -->
  </g>

  <!-- MAIN BUILDING WINDOWS -->
  <g>
    <!-- Window 1 (Top Left) -->
    <rect x="144" y="224" width="48" height="48" fill="#14342b"/>
    <rect x="144" y="224" width="32" height="32" fill="#207842"/>
    <rect x="160" y="240" width="32" height="32" fill="#38b764"/>
    <rect x="160" y="240" width="16" height="16" fill="#a7f070"/>
    <path d="M144,224 v48 h48 v-48 z" fill="none" stroke="#333c57" stroke-width="8"/>

    <!-- Window 2 (Top Right) -->
    <rect x="320" y="224" width="48" height="48" fill="#14342b"/>
    <rect x="320" y="224" width="32" height="32" fill="#207842"/>
    <rect x="336" y="240" width="32" height="32" fill="#38b764"/>
    <rect x="336" y="240" width="16" height="16" fill="#a7f070"/>
    <path d="M320,224 v48 h48 v-48 z" fill="none" stroke="#333c57" stroke-width="8"/>

    <!-- Window 3 (Bottom Left) -->
    <rect x="144" y="304" width="48" height="48" fill="#14342b"/>
    <rect x="144" y="304" width="32" height="32" fill="#207842"/>
    <rect x="160" y="320" width="32" height="32" fill="#38b764"/>
    <rect x="160" y="320" width="16" height="16" fill="#a7f070"/>
    <path d="M144,304 v48 h48 v-48 z" fill="none" stroke="#333c57" stroke-width="8"/>

    <!-- Window 4 (Bottom Right - Broken) -->
    <rect x="320" y="304" width="48" height="48" fill="#14342b"/>
    <rect x="320" y="304" width="32" height="32" fill="#207842"/>
    <rect x="336" y="320" width="32" height="32" fill="#38b764"/>
    <rect x="336" y="320" width="16" height="16" fill="#a7f070"/>
    <path d="M320,304 v48 h48 v-48 z" fill="none" stroke="#333c57" stroke-width="8"/>
    <path d="M320,304 l24,24 l16,-8" fill="none" stroke="#181425" stroke-width="8"/>
    <path d="M320,304 l24,24 l16,-8" fill="none" stroke="#a7f070" stroke-width="4"/>
  </g>

  <!-- VENTILATION FAN (Center) -->
  <g>
    <rect x="224" y="288" width="64" height="64" fill="#333c57"/>
    <rect x="232" y="296" width="48" height="48" fill="#1a1c2c"/>
    <!-- Fan Blades -->
    <rect x="252" y="296" width="8" height="48" fill="#566c86"/>
    <rect x="232" y="316" width="48" height="8" fill="#566c86"/>
    <!-- Center Hub -->
    <rect x="248" y="312" width="16" height="16" fill="#94b0c2"/>
    <rect x="252" y="308" width="8" height="24" fill="#94b0c2"/>
    <rect x="244" y="316" width="24" height="8" fill="#94b0c2"/>
  </g>

  <!-- MAIN ENTRANCE & DOOR -->
  <g>
    <!-- Door Frame -->
    <rect x="208" y="352" width="96" height="96" fill="#333c57"/>
    <rect x="224" y="368" width="64" height="80" fill="#1a1c2c"/>
    <!-- Door panels -->
    <rect x="224" y="368" width="30" height="80" fill="#566c86"/>
    <rect x="258" y="368" width="30" height="80" fill="#566c86"/>
    <!-- Door Glass -->
    <rect x="230" y="376" width="18" height="32" fill="#14342b"/>
    <rect x="264" y="376" width="18" height="32" fill="#14342b"/>
    <!-- Keypad -->
    <rect x="312" y="384" width="16" height="24" fill="#1a1c2c"/>
    <rect x="316" y="388" width="8" height="8" fill="#38b764"/>
    <rect x="316" y="396" width="8" height="8" fill="#e43b44"/>
  </g>

  <!-- HAZARD STRIPES (Under Door) -->
  <g>
    <rect x="128" y="448" width="256" height="16" fill="#181425"/>
    <path d="M128,448 h16 v16 h-16 z M160,448 h16 v16 h-16 z M192,448 h16 v16 h-16 z M224,448 h16 v16 h-16 z M256,448 h16 v16 h-16 z M288,448 h16 v16 h-16 z M320,448 h16 v16 h-16 z M352,448 h16 v16 h-16 z" fill="#feae34"/>
  </g>

  <!-- LAB SIGN (Above Door) -->
  <g>
    <rect x="208" y="224" width="96" height="48" fill="#1a1c2c"/>
    <rect x="208" y="224" width="96" height="48" fill="none" stroke="#333c57" stroke-width="8"/>
    <!-- "LAB" Text -->
    <!-- L -->
    <path d="M228,236 h6 v18 h10 v6 h-16 z" fill="#e43b44"/>
    <!-- A -->
    <path d="M248,260 v-24 h16 v24 h-6 v-8 h-4 v8 z" fill="#e43b44"/>
    <path d="M252,242 h8 v6 h-8 z" fill="#1a1c2c"/>
    <!-- B -->
    <path d="M272,236 h12 v10 h-4 v4 h4 v10 h-12 z" fill="#e43b44"/>
    <path d="M276,240 h6 v4 h-6 z" fill="#1a1c2c"/>
    <path d="M276,250 h6 v4 h-6 z" fill="#1a1c2c"/>
  </g>

  <!-- CABLES & PIPES -->
  <g fill="none" stroke="#181425" stroke-width="8">
    <path d="M384,224 h-16 v64 h-16 v16"/>
    <path d="M128,256 h16 v32 h16"/>
    <path d="M208,248 h-16 v-40"/>
  </g>

  <!-- GROUND DETAILS (Barrels & Ooze) -->
  <g>
    <!-- Ooze Ground Reflection -->
    <rect x="304" y="464" width="80" height="16" fill="#14342b"/>
    <rect x="312" y="480" width="64" height="8" fill="#14342b"/>

    <!-- Ooze Falling from Window -->
    <rect x="336" y="352" width="16" height="96" fill="#38b764"/>
    <rect x="336" y="352" width="8" height="96" fill="#a7f070"/>
    <!-- Splashes -->
    <rect x="320" y="416" width="8" height="16" fill="#38b764"/>
    <rect x="356" y="432" width="8" height="8" fill="#a7f070"/>
    
    <!-- Puddle on Ground -->
    <path d="M304,448 h80 v16 h-80 z M312,464 h64 v8 h-64 z M328,472 h32 v8 h-32 z" fill="#38b764"/>
    <!-- Puddle Highlights -->
    <path d="M312,448 h64 v8 h-64 z M320,464 h48 v4 h-48 z" fill="#a7f070"/>

    <!-- Toxic Barrels -->
    <!-- Barrel 1 -->
    <rect x="80" y="416" width="32" height="32" fill="#feae34"/>
    <rect x="80" y="424" width="32" height="8" fill="#181425"/>
    <!-- Barrel 2 -->
    <rect x="112" y="416" width="32" height="32" fill="#feae34"/>
    <rect x="112" y="424" width="32" height="8" fill="#181425"/>
    <rect x="112" y="416" width="8" height="32" fill="#ffffff" opacity="0.3"/>
    <rect x="80" y="416" width="8" height="32" fill="#ffffff" opacity="0.3"/>
    <!-- Ooze leaking from barrel -->
    <rect x="96" y="440" width="8" height="8" fill="#a7f070"/>
    <rect x="88" y="448" width="24" height="8" fill="#a7f070"/>
    <rect x="104" y="456" width="16" height="8" fill="#38b764"/>
  </g>

  <!-- SECURITY FENCE / GATES -->
  <g>
    <!-- Left Gate -->
    <rect x="16" y="384" width="8" height="64" fill="#566c86"/>
    <rect x="16" y="384" width="32" height="8" fill="#333c57"/>
    <rect x="48" y="384" width="8" height="64" fill="#566c86"/>
    <rect x="16" y="376" width="8" height="8" fill="#e43b44"/>
    <rect x="24" y="400" width="24" height="4" fill="#333c57"/>
    <rect x="24" y="416" width="24" height="4" fill="#333c57"/>
    <rect x="24" y="432" width="24" height="4" fill="#333c57"/>
    
    <!-- Right Gate -->
    <rect x="488" y="384" width="8" height="64" fill="#566c86"/>
    <rect x="456" y="384" width="32" height="8" fill="#333c57"/>
    <rect x="456" y="384" width="8" height="64" fill="#566c86"/>
    <rect x="488" y="376" width="8" height="8" fill="#e43b44"/>
    <rect x="464" y="400" width="24" height="4" fill="#333c57"/>
    <rect x="464" y="416" width="24" height="4" fill="#333c57"/>
    <rect x="464" y="432" width="24" height="4" fill="#333c57"/>
  </g>
    </g>
    </g>

    <g>
      
      
      
    </g>

    <g>
      
      
      
      
    </g>
  </g>

  <rect x="20" y="336" width="600" height="64" rx="18" fill="url(#bar)" stroke="#25365b"/>
  <text x="44" y="378" fill="#eaf3ff" font-family="Manrope, Segoe UI, Arial" font-size="28" font-weight="700">Laboratório Interativo</text>
</svg>