<svg xmlns="http://www.w3.org/2000/svg" width="640" height="420" viewBox="0 0 640 420">
    <defs>
      <linearGradient id="g" x1="0" y1="0" x2="1" y2="1">
        <stop offset="0%" stop-color="#0b1220"/>
        <stop offset="100%" stop-color="#15233d"/>
      </linearGradient>
      <linearGradient id="bar" x1="0" y1="0" x2="1" y2="0">
        <stop offset="0%" stop-color="#1f2f4f"/>
        <stop offset="100%" stop-color="#16243f"/>
      </linearGradient>
      <filter id="shadow" x="-20%" y="-20%" width="140%" height="140%">
        <feDropShadow dx="0" dy="8" stdDeviation="10" flood-color="#000" flood-opacity="0.28"/>
      </filter>
    </defs>
    <rect width="640" height="420" rx="28" fill="url(#g)"/>
    <g opacity="0.08" stroke="#9cc7ff" stroke-width="1">
      <path d="M0 70H640"/><path d="M0 140H640"/><path d="M0 210H640"/><path d="M0 280H640"/><path d="M0 350H640"/>
      <path d="M90 0V420"/><path d="M180 0V420"/><path d="M270 0V420"/><path d="M360 0V420"/><path d="M450 0V420"/><path d="M540 0V420"/>
    </g>
    <rect x="20" y="20" width="600" height="300" rx="24" fill="#111b2e" stroke="#223555" stroke-width="2" filter="url(#shadow)"/>
    
<g transform="translate(80,42)">
  <g stroke="#8fd3ff" stroke-width="4" fill="none">
    <path d="M80 230L260 230L260 70L80 70Z"/>
    <path d="M80 230L160 170L340 170L260 230"/>
    <path d="M260 70L340 10L340 170"/>
    <path d="M80 70L160 10L340 10" opacity="0.65"/>
    <path d="M160 10L160 170" opacity="0.65"/>
  </g>
  <g stroke="#b7ffda" stroke-width="3" fill="none" opacity="0.9">
    <path d="M80 230L48 248"/><path d="M80 230L80 270"/><path d="M80 230L112 248"/>
  </g>
  <text x="28" y="298" fill="#b7ffda" font-size="24" font-family="Manrope, Arial">célula unitária</text>
  <g transform="translate(405,35)">
    <rect x="0" y="0" width="110" height="110" rx="18" fill="#172744" stroke="#27426e"/>
    <circle cx="55" cy="55" r="26" fill="#7c5cff" opacity="0.9"/>
    <circle cx="22" cy="22" r="7" fill="#8fd3ff"/><circle cx="88" cy="22" r="7" fill="#8fd3ff"/><circle cx="22" cy="88" r="7" fill="#8fd3ff"/><circle cx="88" cy="88" r="7" fill="#8fd3ff"/>
    <text x="16" y="146" fill="#ffd166" font-size="22" font-family="Manrope, Arial">rede</text>
  </g>
</g>
    <rect x="20" y="336" width="600" height="64" rx="18" fill="url(#bar)" stroke="#25365b"/>
    <text x="44" y="378" fill="#eaf3ff" font-family="Manrope, Segoe UI, Arial" font-size="28" font-weight="700">Células</text>
    </svg>