<svg xmlns="http://www.w3.org/2000/svg" width="640" height="420" viewBox="0 0 640 420" preserveAspectRatio="xMidYMid meet" data-editor-original-width="640" data-editor-original-height="420" style="width: 633.677px; height: 415.851px;">
    <defs>
      <linearGradient id="g" x1="0" y1="0" x2="1" y2="1" data-layer-name="lineargradient#g">
        <stop offset="0%" stop-color="#0b1220" data-layer-name="stop 3"/>
        <stop offset="100%" stop-color="#15233d" data-layer-name="stop 4"/>
      </linearGradient>
      <linearGradient id="bar" x1="0" y1="0" x2="1" y2="0" data-layer-name="lineargradient#bar">
        <stop offset="0%" stop-color="#1f2f4f" data-layer-name="stop 6"/>
        <stop offset="100%" stop-color="#16243f" data-layer-name="stop 7"/>
      </linearGradient>
      <filter id="shadow" x="-20%" y="-20%" width="140%" height="140%" data-layer-name="filter#shadow">
        <feDropShadow dx="0" dy="8" stdDeviation="10" flood-color="#000" flood-opacity="0.28" data-layer-name="fedropshadow 9"/>
      </filter>
    </defs>
    <rect width="640" height="420" rx="28" fill="url(#g)" data-layer-name="rect 10"/>
    <g opacity="0.08" stroke="#9cc7ff" stroke-width="1" data-layer-group="1" data-layer-name="g 11">
      <path d="M0 70H640" data-layer-name="path 12"/><path d="M0 140H640" data-layer-name="path 13"/><path d="M0 210H640" data-layer-name="path 14"/><path d="M0 280H640" data-layer-name="path 15"/><path d="M0 350H640" data-layer-name="path 16"/>
      <path d="M90 0V420" data-layer-name="path 17"/><path d="M180 0V420" data-layer-name="path 18"/><path d="M270 0V420" data-layer-name="path 19"/><path d="M360 0V420" data-layer-name="path 20"/><path d="M450 0V420" data-layer-name="path 21"/><path d="M540 0V420" data-layer-name="path 22"/>
    </g>
    <rect x="20" y="20" width="600" height="300" rx="24" fill="#111b2e" stroke="#223555" stroke-width="2" filter="url(#shadow)" data-layer-name="rect 23"/>
    
<g transform="translate(88,44)" data-layer-group="1" data-layer-name="g 24">
  <g stroke="#27426e" stroke-width="2" opacity="0.8" data-layer-group="1" data-layer-name="g 25">
    <path d="M0 40H460" data-layer-name="path 26"/><path d="M0 100H460" data-layer-name="path 27"/><path d="M0 160H460" data-layer-name="path 28"/><path d="M0 220H460" data-layer-name="path 29"/>
    <path d="M40 0V260" data-layer-name="path 30"/><path d="M140 0V260" data-layer-name="path 31"/><path d="M240 0V260" data-layer-name="path 32"/><path d="M340 0V260" data-layer-name="path 33"/><path d="M440 0V260" data-layer-name="path 34"/>
  </g>
  <g stroke="#8fd3ff" stroke-width="3" opacity="0.9" data-layer-group="1" data-layer-name="g 35">
    <path d="M40 40L140 100L240 40L340 100L440 40" fill="none" data-layer-name="path 36"/>
    <path d="M40 160L140 220L240 160L340 220L440 160" fill="none" data-layer-name="path 37"/>
    <path d="M40 40L40 160" data-layer-name="path 38"/><path d="M140 100L140 220" data-layer-name="path 39"/><path d="M240 40L240 160" data-layer-name="path 40"/><path d="M340 100L340 220" data-layer-name="path 41"/><path d="M440 40L440 160" data-layer-name="path 42"/>
  </g>
  <g fill="#b7ffda" data-layer-group="1" data-layer-name="g 43">
    <circle cx="40" cy="40" r="7" data-layer-name="circle 44"/><circle cx="140" cy="100" r="7" data-layer-name="circle 45"/><circle cx="240" cy="40" r="7" data-layer-name="circle 46"/><circle cx="340" cy="100" r="7" data-layer-name="circle 47"/><circle cx="440" cy="40" r="7" data-layer-name="circle 48"/>
    <circle cx="40" cy="160" r="7" data-layer-name="circle 49"/><circle cx="140" cy="220" r="7" data-layer-name="circle 50"/><circle cx="240" cy="160" r="7" data-layer-name="circle 51"/><circle cx="340" cy="220" r="7" data-layer-name="circle 52"/><circle cx="440" cy="160" r="7" data-layer-name="circle 53"/>
  </g>
  
  
</g>
    <rect x="20" y="336" width="600" height="64" rx="18" fill="url(#bar)" stroke="#25365b" data-layer-name="rect 56"/>
    <text x="44" y="378" fill="#eaf3ff" font-family="Manrope, Segoe UI, Arial" font-size="28" font-weight="700" data-layer-name="text 57">Redes Cristalinas</text>
    </svg>