<svg xmlns="http://www.w3.org/2000/svg" width="640" height="420" viewBox="0 0 640 420">
  <defs>
    <linearGradient id="bg" x1="0" y1="0" x2="1" y2="1">
      <stop offset="0%" stop-color="#0b1220" />
      <stop offset="100%" stop-color="#15233d" />
    </linearGradient>

    <linearGradient id="bar" x1="0" y1="0" x2="1" y2="0">
      <stop offset="0%" stop-color="#1f2f4f" />
      <stop offset="100%" stop-color="#16243f" />
    </linearGradient>

    <linearGradient id="metaballFill" x1="0.18" y1="0.08" x2="0.86" y2="0.88">
      <stop offset="0%" stop-color="#ff504d" />
      <stop offset="34%" stop-color="#d22c71" />
      <stop offset="58%" stop-color="#5d1f9f" />
      <stop offset="84%" stop-color="#0c1d97" />
      <stop offset="100%" stop-color="#08135e" />
    </linearGradient>

    <filter id="shadow" x="-20%" y="-20%" width="140%" height="140%">
      <feDropShadow dx="0" dy="8" stdDeviation="10" flood-color="#000" flood-opacity="0.28" />
    </filter>

    <filter id="softShadow" x="-30%" y="-30%" width="160%" height="180%">
      <feDropShadow dx="0" dy="11" stdDeviation="9" flood-color="#000" flood-opacity="0.34" />
    </filter>

    <filter id="innerShade" x="-20%" y="-20%" width="140%" height="140%">
      <feGaussianBlur in="SourceAlpha" stdDeviation="7" result="blur" />
      <feOffset dx="0" dy="8" result="off" />
      <feComposite in="off" in2="SourceAlpha" operator="out" result="inner" />
      <feColorMatrix in="inner" type="matrix" values="0 0 0 0 0  0 0 0 0 0  0 0 0 0 0  0 0 0 .35 0" result="shade" />
      <feBlend in="SourceGraphic" in2="shade" mode="multiply" />
    </filter>

    <radialGradient id="highlight" cx="30%" cy="18%" r="75%">
      <stop offset="0%" stop-color="#ffffff" stop-opacity="0.23" />
      <stop offset="30%" stop-color="#ffffff" stop-opacity="0.08" />
      <stop offset="65%" stop-color="#ffffff" stop-opacity="0" />
      <stop offset="100%" stop-color="#ffffff" stop-opacity="0" />
    </radialGradient>

    <clipPath id="previewClip">
      <rect x="20" y="20" width="600" height="300" rx="24" />
    </clipPath>
  <pattern id="dots" x="0" y="0" width="20" height="20" patternUnits="userSpaceOnUse">
            <circle cx="2" cy="2" r="1" fill="rgba(255,255,255,0.05)" />
        </pattern>

        
        <linearGradient id="solid-bg" x1="0%" y1="0%" x2="100%" y2="100%">
            <stop offset="0%" stop-color="#1e3a8a" />
            <stop offset="100%" stop-color="#3b82f6" />
        </linearGradient>
        
        <linearGradient id="liquid-bg" x1="0%" y1="0%" x2="100%" y2="100%">
            <stop offset="0%" stop-color="#083344" />
            <stop offset="100%" stop-color="#06b6d4" />
        </linearGradient>
        
        <linearGradient id="gas-bg" x1="0%" y1="0%" x2="100%" y2="100%">
            <stop offset="0%" stop-color="#4a044e" />
            <stop offset="100%" stop-color="#f43f5e" />
        </linearGradient>

        
        <radialGradient id="o-grad" cx="30%" cy="30%" r="70%">
            <stop offset="0%" stop-color="#fca5a5" />
            <stop offset="50%" stop-color="#ef4444" />
            <stop offset="100%" stop-color="#991b1b" />
        </radialGradient>

        <radialGradient id="h-grad" cx="30%" cy="30%" r="70%">
            <stop offset="0%" stop-color="#ffffff" />
            <stop offset="60%" stop-color="#e2e8f0" />
            <stop offset="100%" stop-color="#94a3b8" />
        </radialGradient>

        
        <filter id="drop-shadow" x="-30%" y="-30%" width="160%" height="160%">
            <feDropShadow dx="2" dy="4" stdDeviation="3" flood-color="#000000" flood-opacity="0.4" />
        </filter>

        
        <g id="mol" filter="url(#drop-shadow)">
            
            <line x1="0" y1="0" x2="-17" y2="14" stroke="#cbd5e1" stroke-width="5" stroke-linecap="round" />
            <line x1="0" y1="0" x2="17" y2="14" stroke="#cbd5e1" stroke-width="5" stroke-linecap="round" />
            
            <circle cx="-17" cy="14" r="10" fill="url(#h-grad)" />
            <circle cx="17" cy="14" r="10" fill="url(#h-grad)" />
            
            <circle cx="0" cy="0" r="18" fill="url(#o-grad)" />
            
            <path d="M -8 -8 A 8 8 0 0 1 8 -8 A 10 10 0 0 0 -8 -8" fill="#ffffff" opacity="0.4" />
        </g>

        
        <g id="moving-mol">
            <path d="M -45 0 L -25 0 M -40 -12 L -20 -6 M -40 12 L -20 6" stroke="rgba(255,255,255,0.6)" stroke-width="3" stroke-linecap="round" />
            <use href="#mol" x="0" y="0" />
        </g>

        
        <g id="snow" stroke="rgba(255,255,255,0.15)" stroke-width="2" stroke-linecap="round">
            <line x1="0" y1="-15" x2="0" y2="15" />
            <line x1="-13" y1="-7.5" x2="13" y2="7.5" />
            <line x1="-13" y1="7.5" x2="13" y2="-7.5" />
            <circle cx="0" cy="0" r="3" fill="none" />
        </g>

        
        <g id="thermo-base">
            <rect x="-5" y="-25" width="10" height="50" rx="5" fill="rgba(0,0,0,0.3)" stroke="#ffffff" stroke-width="2" />
            <path d="M -5 20 L -5 -25 A 5 5 0 0 1 5 -25 L 5 20 A 10 10 0 1 1 -5 20 Z" fill="rgba(0,0,0,0.3)" stroke="#ffffff" stroke-width="2" />
            
            <line x1="5" y1="-15" x2="9" y2="-15" stroke="#ffffff" stroke-width="1.5" />
            <line x1="5" y1="-5" x2="9" y2="-5" stroke="#ffffff" stroke-width="1.5" />
            <line x1="5" y1="5" x2="9" y2="5" stroke="#ffffff" stroke-width="1.5" />
        </g>
    </defs>

  <rect width="640" height="420" rx="28" fill="url(#bg)" />

  <g opacity="0.08" stroke="#9cc7ff" stroke-width="1">
    <path d="M0 70H640" /><path d="M0 140H640" /><path d="M0 210H640" /><path d="M0 280H640" /><path d="M0 350H640" />
    <path d="M90 0V420" /><path d="M180 0V420" /><path d="M270 0V420" /><path d="M360 0V420" /><path d="M450 0V420" /><path d="M540 0V420" />
  </g>

  <rect x="20" y="20" width="600" height="300" rx="24" fill="#111b2e" stroke="#223555" stroke-width="2" filter="url(#shadow)" />

  <g clip-path="url(#previewClip)">
    <g transform="translate(20.000000,20.000000) scale(0.500000)"><rect width="1200" height="600" fill="#0f172a" />
    <rect width="1200" height="600" fill="url(#dots)" />

    
    <text x="600" y="55" font-family="Arial, sans-serif" font-size="32" font-weight="bold" fill="#ffffff" text-anchor="middle" letter-spacing="3">Fases da água</text>
    <text x="600" y="80" font-family="Arial, sans-serif" font-size="14" fill="#94a3b8" text-anchor="middle" letter-spacing="2">Arranjo molecular em diferentes estados físicos</text>

    
    
    
    <g transform="translate(30, 100)">
        <rect width="360" height="360" rx="20" fill="url(#solid-bg)" stroke="rgba(255,255,255,0.15)" stroke-width="2" />
        
        
        <use href="#snow" x="60" y="60" transform="scale(1.5)" />
        <use href="#snow" x="300" y="100" transform="scale(0.8)" />
        <use href="#snow" x="80" y="280" transform="scale(1.2)" />
        <use href="#snow" x="280" y="300" transform="scale(1.5)" />

        
        <path d="M 180 120 L 232 150 L 232 210 L 180 240 L 128 210 L 128 150 Z                   M 180 120 L 180 60                   M 232 150 L 284 120                   M 232 210 L 284 240                   M 180 240 L 180 300                   M 128 210 L 76 240                   M 128 150 L 76 120                   M 180 60 L 232 30 L 284 60 L 284 120 L 336 150 L 336 210 L 284 240 L 284 300 L 232 330 L 180 300 L 128 330 L 76 300 L 76 240 L 24 210 L 24 150 L 76 120 L 76 60 L 128 30 Z" stroke="rgba(255,255,255,0.35)" stroke-width="4" stroke-dasharray="8 6" fill="none" stroke-linecap="round" />

        
        <use href="#mol" x="180" y="120" transform="rotate(0 180 120)" />
        <use href="#mol" x="232" y="150" transform="rotate(120 232 150)" />
        <use href="#mol" x="232" y="210" transform="rotate(240 232 210)" />
        <use href="#mol" x="180" y="240" transform="rotate(0 180 240)" />
        <use href="#mol" x="128" y="210" transform="rotate(120 128 210)" />
        <use href="#mol" x="128" y="150" transform="rotate(240 128 150)" />
        
        <use href="#mol" x="180" y="60" transform="rotate(180 180 60)" />
        <use href="#mol" x="284" y="120" transform="rotate(300 284 120)" />
        <use href="#mol" x="284" y="240" transform="rotate(60 284 240)" />
        <use href="#mol" x="180" y="300" transform="rotate(180 180 300)" />
        <use href="#mol" x="76" y="240" transform="rotate(300 76 240)" />
        <use href="#mol" x="76" y="120" transform="rotate(60 76 120)" />

        
        <use href="#mol" x="232" y="30" transform="rotate(120 232 30)" />
        <use href="#mol" x="128" y="30" transform="rotate(240 128 30)" />
        <use href="#mol" x="284" y="60" transform="rotate(0 284 60)" />
        <use href="#mol" x="76" y="60" transform="rotate(120 76 60)" />
        <use href="#mol" x="336" y="150" transform="rotate(240 336 150)" />
        <use href="#mol" x="24" y="150" transform="rotate(0 24 150)" />
        <use href="#mol" x="336" y="210" transform="rotate(120 336 210)" />
        <use href="#mol" x="24" y="210" transform="rotate(240 24 210)" />
        <use href="#mol" x="232" y="330" transform="rotate(0 232 330)" />
        <use href="#mol" x="128" y="330" transform="rotate(120 128 330)" />
        <use href="#mol" x="284" y="300" transform="rotate(240 284 300)" />
        <use href="#mol" x="76" y="300" transform="rotate(0 76 300)" />

        
        <g transform="translate(320, 40)">
            <use href="#thermo-base" />
            <path d="M -3 20 L -3 5 A 3 3 0 0 1 3 5 L 3 20 A 8 8 0 1 1 -3 20 Z" fill="#3b82f6" />
        </g>
    </g>

    
    
    
    <g transform="translate(420, 100)">
        <rect width="360" height="360" rx="20" fill="url(#liquid-bg)" stroke="rgba(255,255,255,0.15)" stroke-width="2" />
        
        
        <path d="M 0 280 Q 45 260 90 280 T 180 280 T 270 280 T 360 280 L 360 360 L 0 360 Z" fill="rgba(255,255,255,0.05)" />
        <path d="M 0 310 Q 60 330 120 310 T 240 310 T 360 310 L 360 360 L 0 360 Z" fill="rgba(255,255,255,0.08)" />
        <circle cx="50" cy="150" r="8" fill="rgba(255,255,255,0.1)" />
        <circle cx="120" cy="250" r="12" fill="rgba(255,255,255,0.1)" />
        <circle cx="280" cy="100" r="6" fill="rgba(255,255,255,0.1)" />
        <circle cx="300" cy="280" r="15" fill="rgba(255,255,255,0.1)" />

        
        
        <use href="#mol" x="30" y="40" transform="rotate(45 30 40)" />
        <use href="#mol" x="80" y="50" transform="rotate(120 80 50)" />
        <use href="#mol" x="130" y="30" transform="rotate(-30 130 30)" />
        <use href="#mol" x="180" y="60" transform="rotate(180 180 60)" />
        <use href="#mol" x="230" y="40" transform="rotate(75 230 40)" />
        <use href="#mol" x="280" y="55" transform="rotate(-110 280 55)" />
        <use href="#mol" x="330" y="35" transform="rotate(15 330 35)" />
        
        <use href="#mol" x="20" y="90" transform="rotate(-45 20 90)" />
        <use href="#mol" x="70" y="100" transform="rotate(90 70 100)" />
        <use href="#mol" x="120" y="90" transform="rotate(-150 120 90)" />
        <use href="#mol" x="170" y="110" transform="rotate(25 170 110)" />
        <use href="#mol" x="220" y="95" transform="rotate(170 220 95)" />
        <use href="#mol" x="270" y="105" transform="rotate(-60 270 105)" />
        <use href="#mol" x="320" y="90" transform="rotate(105 320 90)" />
        
        <use href="#mol" x="40" y="140" transform="rotate(-15 40 140)" />
        <use href="#mol" x="90" y="150" transform="rotate(220 90 150)" />
        <use href="#mol" x="140" y="140" transform="rotate(55 140 140)" />
        <use href="#mol" x="190" y="160" transform="rotate(-130 190 160)" />
        <use href="#mol" x="240" y="145" transform="rotate(80 240 145)" />
        <use href="#mol" x="290" y="155" transform="rotate(-100 290 155)" />
        <use href="#mol" x="340" y="140" transform="rotate(10 340 140)" />
        
        <use href="#mol" x="30" y="190" transform="rotate(145 30 190)" />
        <use href="#mol" x="80" y="200" transform="rotate(-25 80 200)" />
        <use href="#mol" x="130" y="190" transform="rotate(65 130 190)" />
        <use href="#mol" x="180" y="210" transform="rotate(-85 180 210)" />
        <use href="#mol" x="230" y="195" transform="rotate(115 230 195)" />
        <use href="#mol" x="280" y="205" transform="rotate(-140 280 205)" />
        <use href="#mol" x="330" y="190" transform="rotate(35 330 190)" />
        
        <use href="#mol" x="20" y="240" transform="rotate(-75 20 240)" />
        <use href="#mol" x="70" y="250" transform="rotate(135 70 250)" />
        <use href="#mol" x="120" y="240" transform="rotate(-5 120 240)" />
        <use href="#mol" x="170" y="260" transform="rotate(195 170 260)" />
        <use href="#mol" x="220" y="245" transform="rotate(-50 220 245)" />
        <use href="#mol" x="270" y="255" transform="rotate(160 270 255)" />
        <use href="#mol" x="320" y="240" transform="rotate(-120 320 240)" />
        
        <use href="#mol" x="40" y="290" transform="rotate(40 40 290)" />
        <use href="#mol" x="90" y="300" transform="rotate(-165 90 300)" />
        <use href="#mol" x="140" y="290" transform="rotate(85 140 290)" />
        <use href="#mol" x="190" y="310" transform="rotate(-40 190 310)" />
        <use href="#mol" x="240" y="295" transform="rotate(150 240 295)" />
        <use href="#mol" x="290" y="305" transform="rotate(-95 290 305)" />
        <use href="#mol" x="340" y="290" transform="rotate(20 340 290)" />
        
        <use href="#mol" x="60" y="340" transform="rotate(-115 60 340)" />
        
        <use href="#mol" x="160" y="340" transform="rotate(-175 160 340)" />
        
        
        

        
        <g transform="translate(320, 40)">
            <use href="#thermo-base" />
            <path d="M -3 20 L -3 -5 A 3 3 0 0 1 3 -5 L 3 20 A 8 8 0 1 1 -3 20 Z" fill="#f59e0b" />
        </g>
    </g>

    
    
    
    <g transform="translate(810, 100)">
        <rect width="360" height="360" rx="20" fill="url(#gas-bg)" stroke="rgba(255,255,255,0.15)" stroke-width="2" />
        
        
        <path d="M 40 360 Q 40 270 90 220 T 140 70" stroke="rgba(255,255,255,0.06)" stroke-width="25" fill="none" stroke-linecap="round" />
        <path d="M 200 360 Q 220 250 180 180 T 220 40" stroke="rgba(255,255,255,0.04)" stroke-width="40" fill="none" stroke-linecap="round" />
        <path d="M 320 360 Q 300 280 340 200 T 300 80" stroke="rgba(255,255,255,0.05)" stroke-width="20" fill="none" stroke-linecap="round" />

        
        <use href="#moving-mol" x="70" y="90" transform="rotate(45 70 90)" />
        <use href="#moving-mol" x="210" y="70" transform="rotate(-120 210 70)" />
        <use href="#moving-mol" x="330" y="100" transform="rotate(15 330 100)" />
        
        <use href="#moving-mol" x="130" y="180" transform="rotate(-75 130 180)" />
        <use href="#moving-mol" x="270" y="160" transform="rotate(135 270 160)" />
        
        <use href="#moving-mol" x="60" y="280" transform="rotate(60 60 280)" />
        <use href="#moving-mol" x="190" y="270" transform="rotate(-30 190 270)" />
        
        
        
        

        
        <g transform="translate(320, 40)">
            <use href="#thermo-base" />
            <path d="M -3 20 L -3 -18 A 3 3 0 0 1 3 -18 L 3 20 A 8 8 0 1 1 -3 20 Z" fill="#ef4444" />
        </g>
    </g>

    
    
    
    
    
    <text x="210" y="510" font-family="Arial, sans-serif" font-size="28" font-weight="bold" fill="#ffffff" text-anchor="middle" letter-spacing="4">Sólido</text>
    

    
    <text x="600" y="510" font-family="Arial, sans-serif" font-size="28" font-weight="bold" fill="#ffffff" text-anchor="middle" letter-spacing="4">Líquido</text>
    

    
    <text x="990" y="510" font-family="Arial, sans-serif" font-size="28" font-weight="bold" fill="#ffffff" text-anchor="middle" letter-spacing="4">Gasoso</text>
    

</g></g>

  <rect x="20" y="336" width="600" height="64" rx="18" fill="url(#bar)" stroke="#25365b" />
  <text x="44" y="378" fill="#eaf3ff" font-family="Manrope, Segoe UI, Arial" font-size="28" font-weight="700">Fases da água</text>
</svg>