<svg xmlns="http://www.w3.org/2000/svg" width="640" height="420" viewBox="0 0 640 420">
  <defs>
    <linearGradient id="g" x1="0" y1="0" x2="1" y2="1">
      <stop offset="0%" stop-color="#0b1220"/>
      <stop offset="100%" stop-color="#15233d"/>
    </linearGradient>
    <linearGradient id="bar" x1="0" y1="0" x2="1" y2="0">
      <stop offset="0%" stop-color="#1f2f4f"/>
      <stop offset="100%" stop-color="#16243f"/>
    </linearGradient>
    <filter id="shadow" x="-20%" y="-20%" width="140%" height="140%">
      <feDropShadow dx="0" dy="8" stdDeviation="10" flood-color="#000" flood-opacity="0.28"/>
    </filter>

    <radialGradient id="atomBlue" cx="35%" cy="30%" r="70%">
      <stop offset="0%" stop-color="#8fc3ff"/>
      <stop offset="55%" stop-color="#4b73ff"/>
      <stop offset="100%" stop-color="#2a46a8"/>
    </radialGradient>
    <radialGradient id="atomRed" cx="35%" cy="30%" r="70%">
      <stop offset="0%" stop-color="#ffb3b3"/>
      <stop offset="55%" stop-color="#ff6b6b"/>
      <stop offset="100%" stop-color="#a33535"/>
    </radialGradient>
    <radialGradient id="atomWhite" cx="35%" cy="30%" r="70%">
      <stop offset="0%" stop-color="#ffffff"/>
      <stop offset="60%" stop-color="#dfe6f2"/>
      <stop offset="100%" stop-color="#a8b3c7"/>
    </radialGradient>
    <radialGradient id="atomFe" cx="35%" cy="30%" r="70%">
      <stop offset="0%" stop-color="#ffd2a7"/>
      <stop offset="55%" stop-color="#c87843"/>
      <stop offset="100%" stop-color="#7a3f24"/>
    </radialGradient>
  </defs>

  <rect width="640" height="420" rx="28" fill="url(#g)"/>
  <g opacity="0.08" stroke="#9cc7ff" stroke-width="1">
    <path d="M0 70H640"/><path d="M0 140H640"/><path d="M0 210H640"/><path d="M0 280H640"/><path d="M0 350H640"/>
    <path d="M90 0V420"/><path d="M180 0V420"/><path d="M270 0V420"/><path d="M360 0V420"/><path d="M450 0V420"/><path d="M540 0V420"/>
  </g>
  <rect x="20" y="20" width="600" height="300" rx="24" fill="#111b2e" stroke="#223555" stroke-width="2" filter="url(#shadow)"/>

  <g transform="translate(89,46) scale(0.88)">
    <g stroke="#8fd3ff" stroke-width="3.2" fill="none" stroke-linecap="round" stroke-linejoin="round">
      <path d="M118 228L323 228L352 100L147 100Z"/>
      <path d="M147 100L203 54L406 54L352 100"/>
      <path d="M323 228L377 182L406 54"/>
      <path d="M118 228L173 182L203 54" opacity="0.7"/>
      <path d="M173 182L377 182" opacity="0.7"/>
    </g>

    <g stroke="#f19a8e" stroke-width="2.2" fill="none" stroke-linecap="round" opacity="0.92">
      <path d="M147 100L352 100"/>
      <path d="M118 228L323 228"/>
      <path d="M203 54L406 54"/>
      <path d="M173 182L377 182"/>
      <path d="M118 228L173 182"/>
      <path d="M323 228L377 182"/>
      <path d="M147 100L203 54"/>
      <path d="M352 100L406 54"/>
    </g>

    <g stroke="#d8dee8" stroke-width="1.9" fill="none" stroke-linecap="round" opacity="0.9">
      <path d="M147 100L173 182L118 228"/>
      <path d="M352 100L377 182L323 228"/>
      <path d="M203 54L173 182"/>
      <path d="M406 54L377 182"/>
      <path d="M147 100L264 88L352 100"/>
      <path d="M118 228L220 214L323 228"/>
      <path d="M203 54L304 42L406 54"/>
      <path d="M173 182L274 168L377 182"/>
      <path d="M264 88L274 168L220 214"/>
      <path d="M304 42L264 88"/>
      <path d="M304 42L274 168"/>
      <path d="M220 214L274 168"/>
    </g>

    <g fill="url(#atomFe)" stroke="#b96d44" stroke-width="1">
      <circle cx="147" cy="100" r="18"/><circle cx="352" cy="100" r="18"/>
      <circle cx="118" cy="228" r="18"/><circle cx="323" cy="228" r="18"/>
      <circle cx="203" cy="54" r="18"/><circle cx="406" cy="54" r="18"/>
      <circle cx="173" cy="182" r="18"/><circle cx="377" cy="182" r="18"/>
    </g>

    <g fill="url(#atomBlue)" stroke="#8ba7ff" stroke-width="0.9">
      <circle cx="257" cy="54" r="7"/><circle cx="304" cy="54" r="7"/><circle cx="350" cy="54" r="7"/>
      <circle cx="205" cy="100" r="7"/><circle cx="263" cy="100" r="7"/>
      <circle cx="231" cy="182" r="7"/><circle cx="289" cy="182" r="7"/><circle cx="348" cy="182" r="7"/>
      <circle cx="176" cy="228" r="7"/><circle cx="234" cy="228" r="7"/><circle cx="294" cy="228" r="7"/>
    </g>

    <g fill="url(#atomWhite)" stroke="#97a6bb" stroke-width="0.8">
      
      <circle cx="197" cy="130" r="6"/>
      <circle cx="154" cy="155" r="6"/>
      <circle cx="142" cy="194" r="6"/><circle cx="202" cy="200" r="6"/><circle cx="262" cy="200" r="6"/>
      <circle cx="244" cy="218" r="6"/>
    </g>

    <g fill="url(#atomRed)" stroke="#bf5151" stroke-width="0.9">
      <circle cx="240" cy="86" r="9"/><circle cx="308" cy="118" r="9"/><circle cx="274" cy="146" r="9"/><circle cx="228" cy="178" r="9"/>
    </g>

    <g stroke="#eef4ff" stroke-width="1.7" stroke-linecap="round">
      <line x1="240" y1="86" x2="228" y2="74"/><line x1="240" y1="86" x2="252" y2="72"/>
      <line x1="308" y1="118" x2="296" y2="106"/><line x1="308" y1="118" x2="320" y2="106"/>
      <line x1="274" y1="146" x2="262" y2="134"/><line x1="274" y1="146" x2="286" y2="134"/>
      <line x1="228" y1="178" x2="216" y2="166"/><line x1="228" y1="178" x2="240" y2="166"/>
    </g>

    <g fill="url(#atomWhite)" stroke="#a3adc0" stroke-width="0.7">
      <circle cx="228" cy="74" r="5.2"/><circle cx="252" cy="72" r="5.2"/>
      <circle cx="296" cy="106" r="5.2"/><circle cx="320" cy="106" r="5.2"/>
      <circle cx="262" cy="134" r="5.2"/><circle cx="286" cy="134" r="5.2"/>
      <circle cx="216" cy="166" r="5.2"/><circle cx="240" cy="166" r="5.2"/>
    </g>
  </g>

  <rect x="20" y="336" width="600" height="64" rx="18" fill="url(#bar)" stroke="#25365b"/>
  <text x="44" y="378" fill="#eaf3ff" font-family="Manrope, Segoe UI, Arial" font-size="28" font-weight="700">Complexos e polimorfismo</text>
</svg>