
<svg xmlns="http://www.w3.org/2000/svg" width="640" height="420" viewBox="0 0 640 420">
  <defs>
    <linearGradient id="g" x1="0" y1="0" x2="1" y2="1">
      <stop offset="0%" stop-color="#0b1220"/>
      <stop offset="100%" stop-color="#15233d"/>
    </linearGradient>
    <linearGradient id="bar" x1="0" y1="0" x2="1" y2="0">
      <stop offset="0%" stop-color="#1f2f4f"/>
      <stop offset="100%" stop-color="#16243f"/>
    </linearGradient>
    <filter id="shadow" x="-20%" y="-20%" width="140%" height="140%">
      <feDropShadow dx="0" dy="8" stdDeviation="10" flood-color="#000" flood-opacity="0.28"/>
    </filter>
  </defs>
  <rect width="640" height="420" rx="28" fill="url(#g)"/>
  <g opacity="0.08" stroke="#9cc7ff" stroke-width="1">
    <path d="M0 70H640"/><path d="M0 140H640"/><path d="M0 210H640"/><path d="M0 280H640"/><path d="M0 350H640"/>
    <path d="M90 0V420"/><path d="M180 0V420"/><path d="M270 0V420"/><path d="M360 0V420"/><path d="M450 0V420"/><path d="M540 0V420"/>
  </g>
  <rect x="20" y="20" width="600" height="300" rx="24" fill="#111b2e" stroke="#223555" stroke-width="2" filter="url(#shadow)"/>
  
  <g transform="translate(44,40)">
    <rect x="0" y="0" width="552" height="256" rx="22" fill="#131f36" stroke="#243a60" stroke-width="2"/>
    <g transform="translate(20,18)">
      <rect x="0" y="0" width="250" height="220" rx="18" fill="#172744" stroke="#29456f"/>
      <g stroke="#8fd3ff" stroke-width="3" fill="none" opacity="0.9">
        <rect x="26" y="26" width="140" height="140"/>
        <path d="M26 26 L78 8 L218 8 L166 26 Z"/>
        <path d="M166 26 L218 8 L218 148 L166 166 Z"/>
        <path d="M26 166 L78 148 L218 148 L166 166 Z"/>
        <path d="M78 8 L78 148"/>
      </g>
      <g fill="#b7ffda">
        <circle cx="26" cy="26" r="7"/><circle cx="166" cy="26" r="7"/><circle cx="26" cy="166" r="7"/><circle cx="166" cy="166" r="7"/>
        <circle cx="78" cy="8" r="7"/><circle cx="218" cy="8" r="7"/><circle cx="78" cy="148" r="7"/><circle cx="218" cy="148" r="7"/>
      </g>
      <g fill="#ffd166">
      </g>
      <g fill="#ff8fb0">
        <circle cx="122" cy="87" r="10"/>
      </g>
      <text x="16" y="206" fill="#9dc7ff" font-size="18">simetria + frações</text>
    </g>
    <g transform="translate(292,18)">
      <rect x="0" y="0" width="240" height="220" rx="18" fill="#172744" stroke="#29456f"/>
      <text x="18" y="36" fill="#eaf3ff" font-size="22" font-weight="700">Contagem da célula</text>
      <g font-size="19" font-family="Manrope, Arial">
        <text x="18" y="78" fill="#b7ffda">8 vértices × 1/8 = 1</text>
        <text x="18" y="110" fill="#ffd166">0 faces × 1/2 = 0</text>
        <text x="18" y="142" fill="#ff8fb0">1 centro × 1 = 1</text>
      </g>
      <path d="M18 158 H222" stroke="#304f7e" stroke-width="2"/>
      <text x="18" y="196" fill="#8fd3ff" font-size="28" font-weight="700">Fórmula: AB</text>
    </g>
  </g>

  <rect x="20" y="336" width="600" height="64" rx="18" fill="url(#bar)" stroke="#25365b"/>
  <text x="44" y="378" fill="#eaf3ff" font-family="Manrope, Segoe UI, Arial" font-size="28" font-weight="700">Simetria e Fórmula Unitária</text>
</svg>