<svg xmlns="http://www.w3.org/2000/svg" width="640" height="420" viewBox="0 0 640 420" preserveAspectRatio="xMidYMid meet" data-editor-original-width="640" data-editor-original-height="420" style="width: 633.677px; height: 415.851px;">
    <defs>
      <linearGradient id="g" x1="0" y1="0" x2="1" y2="1" data-layer-name="lineargradient#g">
        <stop offset="0%" stop-color="#0b1220" data-layer-name="stop 3"/>
        <stop offset="100%" stop-color="#15233d" data-layer-name="stop 4"/>
      </linearGradient>
      <linearGradient id="bar" x1="0" y1="0" x2="1" y2="0" data-layer-name="lineargradient#bar">
        <stop offset="0%" stop-color="#1f2f4f" data-layer-name="stop 6"/>
        <stop offset="100%" stop-color="#16243f" data-layer-name="stop 7"/>
      </linearGradient>
      <filter id="shadow" x="-20%" y="-20%" width="140%" height="140%" data-layer-name="filter#shadow">
        <feDropShadow dx="0" dy="8" stdDeviation="10" flood-color="#000" flood-opacity="0.28" data-layer-name="fedropshadow 9"/>
      </filter>
    </defs>
    <rect width="640" height="420" rx="28" fill="url(#g)" data-layer-name="rect 10"/>
    <g opacity="0.08" stroke="#9cc7ff" stroke-width="1" data-layer-group="1" data-layer-name="g 11">
      <path d="M0 70H640" data-layer-name="path 12"/><path d="M0 140H640" data-layer-name="path 13"/><path d="M0 210H640" data-layer-name="path 14"/><path d="M0 280H640" data-layer-name="path 15"/><path d="M0 350H640" data-layer-name="path 16"/>
      <path d="M90 0V420" data-layer-name="path 17"/><path d="M180 0V420" data-layer-name="path 18"/><path d="M270 0V420" data-layer-name="path 19"/><path d="M360 0V420" data-layer-name="path 20"/><path d="M450 0V420" data-layer-name="path 21"/><path d="M540 0V420" data-layer-name="path 22"/>
    </g>
    <rect x="20" y="20" width="600" height="300" rx="24" fill="#111b2e" stroke="#223555" stroke-width="2" filter="url(#shadow)" data-layer-name="rect 23"/>
    
<g transform="translate(90,36)" data-layer-group="1" data-layer-name="g 24">
  <g stroke="#8fd3ff" stroke-width="5" fill="none" opacity="0.95" data-layer-group="1" data-layer-name="g 25">
    <line x1="220" y1="120" x2="130" y2="55" data-layer-name="line 26"/>
    <line x1="220" y1="120" x2="310" y2="55" data-layer-name="line 27"/>
    <line x1="220" y1="120" x2="120" y2="190" data-layer-name="line 28"/>
    <line x1="220" y1="120" x2="320" y2="190" data-layer-name="line 29"/>
    <line x1="220" y1="120" x2="220" y2="235" data-layer-name="line 30"/>
  </g>
  <g fill="#b7ffda" data-layer-group="1" data-layer-name="g 31">
    <circle cx="130" cy="55" r="16" data-layer-name="circle 32"/><circle cx="310" cy="55" r="16" data-layer-name="circle 33"/><circle cx="120" cy="190" r="16" data-layer-name="circle 34"/><circle cx="320" cy="190" r="16" data-layer-name="circle 35"/><circle cx="220" cy="235" r="16" data-layer-name="circle 36"/>
  </g>
  <circle cx="220" cy="120" r="28" fill="#7c5cff" stroke="#b9a8ff" stroke-width="4" data-layer-name="circle 37"/>
  <g transform="translate(410,28)" data-layer-group="1" data-layer-name="g 38">
    <rect x="0" y="0" width="120" height="90" rx="16" fill="#162744" stroke="#27426e" data-layer-name="rect 39" transform="matrix(1 0 0 1 -12.34439278 0)"/>
    <text x="16" y="37" fill="#ffd166" font-family="Manrope, Arial" font-size="24" data-layer-name="text 40" transform="matrix(1 0 0 1 -10.10000253 15.71075249)">VSEPR</text>
  </g>
</g>
    <rect x="20" y="336" width="600" height="64" rx="18" fill="url(#bar)" stroke="#25365b" data-layer-name="rect 41"/>
    <text x="44" y="378" fill="#eaf3ff" font-family="Manrope, Segoe UI, Arial" font-size="28" font-weight="700" data-layer-name="text 42">Geometria Molecular</text>
    </svg>