<svg xmlns="http://www.w3.org/2000/svg" width="640" height="420" viewBox="0 0 640 420">
    <defs>
      <linearGradient id="g" x1="0" y1="0" x2="1" y2="1">
        <stop offset="0%" stop-color="#0b1220"/>
        <stop offset="100%" stop-color="#15233d"/>
      </linearGradient>
      <linearGradient id="bar" x1="0" y1="0" x2="1" y2="0">
        <stop offset="0%" stop-color="#1f2f4f"/>
        <stop offset="100%" stop-color="#16243f"/>
      </linearGradient>
      <filter id="shadow" x="-20%" y="-20%" width="140%" height="140%">
        <feDropShadow dx="0" dy="8" stdDeviation="10" flood-color="#000" flood-opacity="0.28"/>
      </filter>
    </defs>
    <rect width="640" height="420" rx="28" fill="url(#g)"/>
    <g opacity="0.08" stroke="#9cc7ff" stroke-width="1">
      <path d="M0 70H640"/><path d="M0 140H640"/><path d="M0 210H640"/><path d="M0 280H640"/><path d="M0 350H640"/>
      <path d="M90 0V420"/><path d="M180 0V420"/><path d="M270 0V420"/><path d="M360 0V420"/><path d="M450 0V420"/><path d="M540 0V420"/>
    </g>
    <rect x="20" y="20" width="600" height="300" rx="24" fill="#111b2e" stroke="#223555" stroke-width="2" filter="url(#shadow)"/>
    
<g transform="translate(58,46)">
  <g fill="#172744" stroke="#284470">
    <rect x="0" y="0" width="166" height="244" rx="20"/>
    <rect x="188" y="0" width="166" height="244" rx="20"/>
    <rect x="376" y="0" width="166" height="244" rx="20"/>
  </g>
  <g stroke="#8fd3ff" stroke-width="4" fill="none">
    <line x1="84" y1="122" x2="120" y2="92"/><line x1="84" y1="122" x2="48" y2="92"/>
    <line x1="272" y1="122" x2="308" y2="82"/><line x1="272" y1="122" x2="232" y2="88"/><line x1="272" y1="122" x2="272" y2="170"/>
    <line x1="460" y1="120" x2="500" y2="78"/><line x1="460" y1="120" x2="420" y2="78"/><line x1="460" y1="120" x2="460" y2="168"/><line x1="460" y1="120" x2="512" y2="132"/>
  </g>
  <g fill="#b7ffda">
    <circle cx="84" cy="122" r="14"/><circle cx="120" cy="92" r="9"/><circle cx="48" cy="92" r="9"/>
    <circle cx="272" cy="122" r="14"/><circle cx="308" cy="82" r="9"/><circle cx="232" cy="88" r="9"/><circle cx="272" cy="170" r="9"/>
    <circle cx="460" cy="120" r="14"/><circle cx="500" cy="78" r="9"/><circle cx="420" cy="78" r="9"/><circle cx="460" cy="168" r="9"/><circle cx="512" cy="132" r="9"/>
  </g>
  <g fill="#ffd166" font-size="20" font-family="Manrope, Arial" font-weight="700">
    <text x="76" y="30">1</text><text x="264" y="30">2</text><text x="452" y="30">3</text>
  </g>
  <g stroke="#7c5cff" stroke-width="3" fill="none" opacity="0.8">
    <path d="M166 122H188" marker-end="url(#arr)"/>
    <path d="M354 122H376" marker-end="url(#arr)"/>
  </g>
</g>
<defs><marker id="arr" markerWidth="8" markerHeight="8" refX="6" refY="4" orient="auto"><path d="M0,0 L8,4 L0,8" fill="#7c5cff"/></marker></defs>
    <rect x="20" y="336" width="600" height="64" rx="18" fill="url(#bar)" stroke="#25365b"/>
    <text x="44" y="378" fill="#eaf3ff" font-family="Manrope, Segoe UI, Arial" font-size="28" font-weight="700">Geometria Molecular • passo a passo</text>
    </svg>