<svg xmlns="http://www.w3.org/2000/svg" width="640" height="420" viewBox="0 0 640 420">
    <defs>
      <linearGradient id="g" x1="0" y1="0" x2="1" y2="1">
        <stop offset="0%" stop-color="#0b1220"/>
        <stop offset="100%" stop-color="#15233d"/>
      </linearGradient>
      <linearGradient id="bar" x1="0" y1="0" x2="1" y2="0">
        <stop offset="0%" stop-color="#1f2f4f"/>
        <stop offset="100%" stop-color="#16243f"/>
      </linearGradient>
      <filter id="shadow" x="-20%" y="-20%" width="140%" height="140%">
        <feDropShadow dx="0" dy="8" stdDeviation="10" flood-color="#000" flood-opacity="0.28"/>
      </filter>
    </defs>
    <rect width="640" height="420" rx="28" fill="url(#g)"/>
    <g opacity="0.08" stroke="#9cc7ff" stroke-width="1">
      <path d="M0 70H640"/><path d="M0 140H640"/><path d="M0 210H640"/><path d="M0 280H640"/><path d="M0 350H640"/>
      <path d="M90 0V420"/><path d="M180 0V420"/><path d="M270 0V420"/><path d="M360 0V420"/><path d="M450 0V420"/><path d="M540 0V420"/>
    </g>
    <rect x="20" y="20" width="600" height="300" rx="24" fill="#111b2e" stroke="#223555" stroke-width="2" filter="url(#shadow)"/>
    
<g transform="translate(72,42)">
  <g stroke="#8fd3ff" stroke-width="5" fill="none">
    <line x1="190" y1="150" x2="110" y2="90"/>
    <line x1="190" y1="150" x2="270" y2="90"/>
    <line x1="190" y1="150" x2="190" y2="245"/>
  </g>
  <g fill="#b7ffda">
    <circle cx="110" cy="90" r="16"/><circle cx="270" cy="90" r="16"/><circle cx="190" cy="245" r="16"/>
  </g>
  <circle cx="190" cy="150" r="28" fill="#7c5cff" stroke="#b8a6ff" stroke-width="4"/>
  <g stroke="#ff7aa2" stroke-width="6" fill="none">
    <path d="M340 170H500"/>
    <path d="M500 170l-22 -16"/><path d="M500 170l-22 16"/>
  </g>
  <text x="325" y="150" fill="#ffb2c7" font-size="22" font-family="Manrope, Arial">δ−</text>
  <text x="503" y="150" fill="#ffd166" font-size="22" font-family="Manrope, Arial">δ+</text>
  <g transform="translate(332,62)">
    <rect x="0" y="0" width="190" height="60" rx="14" fill="#172744" stroke="#27426e"/>
    <text x="18" y="39" fill="#eaf3ff" font-family="Manrope, Arial" font-size="22">momento dipolar</text>
  </g>
</g>
    <rect x="20" y="336" width="600" height="64" rx="18" fill="url(#bar)" stroke="#25365b"/>
    <text x="44" y="378" fill="#eaf3ff" font-family="Manrope, Segoe UI, Arial" font-size="28" font-weight="700">Polaridade Molecular</text>
    </svg>