<svg xmlns="http://www.w3.org/2000/svg" viewBox="0 0 900 620" role="img" aria-label="SiMoEns MotionLab Animation Maker">
  <defs>
    <linearGradient id="bg" x1="0" y1="0" x2="1" y2="1">
      <stop offset="0" stop-color="#fff7df"/>
      <stop offset="1" stop-color="#dfe8ff"/>
    </linearGradient>
    <filter id="shadow" x="-20%" y="-20%" width="140%" height="140%"><feDropShadow dx="0" dy="18" stdDeviation="18" flood-color="#000" flood-opacity=".18"/></filter>
  </defs>
  <rect width="900" height="620" rx="54" fill="url(#bg)"/>
  <circle cx="730" cy="98" r="84" fill="#ffbe28" opacity=".9"/>
  <circle cx="132" cy="520" r="118" fill="#4d7cff" opacity=".16"/>
  <g filter="url(#shadow)">
    <rect x="110" y="94" width="680" height="430" rx="34" fill="#fffaf2" stroke="#111" stroke-width="6"/>
    <rect x="110" y="94" width="680" height="70" rx="34" fill="#111"/>
    <circle cx="155" cy="129" r="11" fill="#ff5a5a"/>
    <circle cx="190" cy="129" r="11" fill="#ffbe28"/>
    <circle cx="225" cy="129" r="11" fill="#17a673"/>
    <rect x="145" y="202" width="172" height="238" rx="22" fill="#f2eadc" stroke="#111" stroke-width="4"/>
    <rect x="355" y="202" width="390" height="238" rx="22" fill="#ffffff" stroke="#111" stroke-width="4"/>
    <line x1="392" y1="390" x2="700" y2="390" stroke="#111" stroke-width="5" stroke-linecap="round"/>
    <circle cx="435" cy="320" r="42" fill="#ffbe28" stroke="#111" stroke-width="5"/>
    <circle cx="555" cy="266" r="34" fill="#4d7cff" stroke="#111" stroke-width="5"/>
    <circle cx="660" cy="334" r="38" fill="#17a673" stroke="#111" stroke-width="5"/>
    <line x1="435" y1="320" x2="555" y2="266" stroke="#111" stroke-width="6"/>
    <line x1="555" y1="266" x2="660" y2="334" stroke="#111" stroke-width="6"/>
    <rect x="166" y="226" width="128" height="28" rx="14" fill="#111"/>
    <rect x="166" y="275" width="96" height="22" rx="11" fill="#ffbe28" stroke="#111" stroke-width="3"/>
    <rect x="166" y="320" width="118" height="22" rx="11" fill="#4d7cff" opacity=".8" stroke="#111" stroke-width="3"/>
    <rect x="166" y="365" width="86" height="22" rx="11" fill="#17a673" opacity=".8" stroke="#111" stroke-width="3"/>
    <rect x="248" y="472" width="404" height="42" rx="21" fill="#111"/>
    <rect x="288" y="485" width="70" height="16" rx="8" fill="#ffbe28"/>
    <rect x="378" y="485" width="110" height="16" rx="8" fill="#fff" opacity=".9"/>
    <rect x="508" y="485" width="70" height="16" rx="8" fill="#4d7cff"/>
  </g>
  <text x="450" y="576" text-anchor="middle" font-family="Arial, sans-serif" font-size="42" font-weight="900" fill="#111">MotionLab</text>
</svg>
