<svg xmlns="http://www.w3.org/2000/svg" width="640" height="420" viewBox="0 0 640 420">
    <defs>
      <linearGradient id="g" x1="0" y1="0" x2="1" y2="1">
        <stop offset="0%" stop-color="#0b1220"/>
        <stop offset="100%" stop-color="#15233d"/>
      </linearGradient>
      <linearGradient id="bar" x1="0" y1="0" x2="1" y2="0">
        <stop offset="0%" stop-color="#1f2f4f"/>
        <stop offset="100%" stop-color="#16243f"/>
      </linearGradient>
      <filter id="shadow" x="-20%" y="-20%" width="140%" height="140%">
        <feDropShadow dx="0" dy="8" stdDeviation="10" flood-color="#000" flood-opacity="0.28"/>
      </filter>
    </defs>
    <rect width="640" height="420" rx="28" fill="url(#g)"/>
    <g opacity="0.08" stroke="#9cc7ff" stroke-width="1">
      <path d="M0 70H640"/><path d="M0 140H640"/><path d="M0 210H640"/><path d="M0 280H640"/><path d="M0 350H640"/>
      <path d="M90 0V420"/><path d="M180 0V420"/><path d="M270 0V420"/><path d="M360 0V420"/><path d="M450 0V420"/><path d="M540 0V420"/>
    </g>
    <rect x="20" y="20" width="600" height="300" rx="24" fill="#111b2e" stroke="#223555" stroke-width="2" filter="url(#shadow)"/>
    
<g transform="translate(52,52)">
  <g fill="#1a2a46" stroke="#2b446d" stroke-width="2">
    <circle cx="92" cy="92" r="58"/><circle cx="194" cy="92" r="58"/><circle cx="143" cy="180" r="58"/>
    <circle cx="296" cy="92" r="58"/><circle cx="398" cy="92" r="58"/><circle cx="347" cy="180" r="58"/>
  </g>
  <g fill="none" stroke="#8fd3ff" stroke-width="5" opacity="0.9">
    <circle cx="92" cy="92" r="58"/><circle cx="194" cy="92" r="58"/><circle cx="143" cy="180" r="58"/>
    <circle cx="296" cy="92" r="58"/><circle cx="398" cy="92" r="58"/><circle cx="347" cy="180" r="58"/>
  </g>
  <circle cx="143" cy="121" r="18" fill="#ffd166" stroke="#ffcf5a" stroke-width="4"/>
  <circle cx="347" cy="121" r="28" fill="#ff7aa2" opacity="0.9" stroke="#ff9ab7" stroke-width="4"/>
  <text x="453" y="88" fill="#b7ffda" font-size="22" font-family="Manrope, Arial"> </text>
  <text x="454" y="128" fill="#ffc8d8" font-size="22" font-family="Manrope, Arial"> </text>
</g>
    <rect x="20" y="336" width="600" height="64" rx="18" fill="url(#bar)" stroke="#25365b"/>
    <text x="44" y="378" fill="#eaf3ff" font-family="Manrope, Segoe UI, Arial" font-size="28" font-weight="700">Buracos e Empacotamento</text>
    </svg>