<svg xmlns="http://www.w3.org/2000/svg" width="640" height="420" viewBox="0 0 640 420" preserveAspectRatio="xMidYMid meet" data-editor-original-width="640" data-editor-original-height="420" style="width: 761.6px; height: 499.8px;">

  <defs>
    <linearGradient id="bg" x1="0" y1="0" x2="1" y2="1" data-layer-name="lineargradient#bg">
      <stop offset="0%" stop-color="#0b1220" data-layer-name="stop 3"/>
      <stop offset="100%" stop-color="#15233d" data-layer-name="stop 4"/>
    </linearGradient>
    <linearGradient id="bar" x1="0" y1="0" x2="1" y2="0" data-layer-name="lineargradient#bar">
      <stop offset="0%" stop-color="#1f2f4f" data-layer-name="stop 6"/>
      <stop offset="100%" stop-color="#16243f" data-layer-name="stop 7"/>
    </linearGradient>
    <linearGradient id="panelGlow" x1="0" y1="0" x2="1" y2="1" data-layer-name="lineargradient#panelGlow">
      <stop offset="0%" stop-color="#182844" data-layer-name="stop 9"/>
      <stop offset="100%" stop-color="#0d1729" data-layer-name="stop 10"/>
    </linearGradient>
    <linearGradient id="accentA" x1="0" y1="0" x2="1" y2="1" data-layer-name="lineargradient#accentA">
      <stop offset="0%" stop-color="#89f7ff" data-layer-name="stop 12"/>
      <stop offset="100%" stop-color="#4e72ff" data-layer-name="stop 13"/>
    </linearGradient>
    <linearGradient id="accentB" x1="0" y1="0" x2="1" y2="1" data-layer-name="lineargradient#accentB">
      <stop offset="0%" stop-color="#ff6c78" data-layer-name="stop 15"/>
      <stop offset="100%" stop-color="#9f4bff" data-layer-name="stop 16"/>
    </linearGradient>
    <linearGradient id="accentC" x1="0" y1="0" x2="1" y2="1" data-layer-name="lineargradient#accentC">
      <stop offset="0%" stop-color="#78ffb9" data-layer-name="stop 18"/>
      <stop offset="100%" stop-color="#11b5c9" data-layer-name="stop 19"/>
    </linearGradient>
    <filter id="shadow" x="-20%" y="-20%" width="140%" height="140%" data-layer-name="filter#shadow">
      <feDropShadow dx="0" dy="8" stdDeviation="10" flood-color="#000" flood-opacity="0.28" data-layer-name="fedropshadow 21"/>
    </filter>
    <filter id="softShadow" x="-20%" y="-20%" width="140%" height="150%" data-layer-name="filter#softShadow">
      <feDropShadow dx="0" dy="6" stdDeviation="8" flood-color="#000" flood-opacity="0.24" data-layer-name="fedropshadow 23"/>
    </filter>
    <filter id="pieceShadow" x="-30%" y="-30%" width="160%" height="170%" data-layer-name="filter#pieceShadow">
      <feDropShadow dx="0" dy="5" stdDeviation="5" flood-color="#000" flood-opacity="0.32" data-layer-name="fedropshadow 25"/>
    </filter>
    <radialGradient id="highlight" cx="30%" cy="18%" r="75%" data-layer-name="radialgradient#highlight">
      <stop offset="0%" stop-color="#ffffff" stop-opacity="0.2" data-layer-name="stop 27"/>
      <stop offset="30%" stop-color="#ffffff" stop-opacity="0.08" data-layer-name="stop 28"/>
      <stop offset="65%" stop-color="#ffffff" stop-opacity="0" data-layer-name="stop 29"/>
      <stop offset="100%" stop-color="#ffffff" stop-opacity="0" data-layer-name="stop 30"/>
    </radialGradient>
    <clipPath id="previewClip" data-layer-name="clippath#previewClip">
      <rect x="20" y="20" width="600" height="300" rx="24" data-layer-name="rect 32"/>
    </clipPath>
    
  </defs>
  <rect width="640" height="420" rx="28" fill="url(#bg)" data-layer-name="rect 33"/>
  <g opacity="0.08" stroke="#9cc7ff" stroke-width="1" data-layer-group="1" data-layer-name="g 34">
    <path d="M0 70H640" data-layer-name="path 35"/><path d="M0 140H640" data-layer-name="path 36"/><path d="M0 210H640" data-layer-name="path 37"/><path d="M0 280H640" data-layer-name="path 38"/><path d="M0 350H640" data-layer-name="path 39"/>
    <path d="M90 0V420" data-layer-name="path 40"/><path d="M180 0V420" data-layer-name="path 41"/><path d="M270 0V420" data-layer-name="path 42"/><path d="M360 0V420" data-layer-name="path 43"/><path d="M450 0V420" data-layer-name="path 44"/><path d="M540 0V420" data-layer-name="path 45"/>
  </g>
  <rect x="20" y="20" width="600" height="300" rx="24" fill="#111b2e" stroke="#223555" stroke-width="2" filter="url(#shadow)" data-layer-name="rect 46"/>
  <g clip-path="url(#previewClip)" data-layer-group="1" data-layer-name="g 47" transform="matrix(1 0 0 1 42.01696014 -7.46977615)">
    <circle cx="102" cy="82" r="92" fill="url(#accentB)" opacity="0.12" data-layer-name="circle 48"/>
    <circle cx="560" cy="42" r="128" fill="url(#accentA)" opacity="0.12" data-layer-name="circle 49"/>
    <circle cx="540" cy="260" r="110" fill="url(#accentC)" opacity="0.10" data-layer-name="circle 50"/>
    
    
    
    
    
    
    
    
    
    
    
<g transform="matrix(1 0 0 1 112.01696014 56.53022385)" data-layer-group="1" data-layer-name="g 62" data-collapsed="0"><rect x="0" y="0" width="242" height="242" rx="18" fill="#0e1728" stroke="#2f4b73" data-layer-name="rect 63" transform="matrix(1.09660935 0 0 1.06416154 39.24260569 -5.80283713)"/><rect x="9" y="14" width="144" height="24" rx="12" fill="url(#accentA)" opacity="0.26" data-layer-name="rect 64" transform="matrix(1 0 0 1 42.01696014 -7.46977615)"/><rect x="9" y="74" width="204" height="24" rx="12" fill="url(#accentC)" opacity="0.22" data-layer-name="rect 65" transform="matrix(1 0 0 1 42.01696014 -7.46977615)"/><rect x="9" y="134" width="234" height="24" rx="12" fill="url(#accentB)" opacity="0.2" data-layer-name="rect 66" transform="matrix(1 0 0 1 42.01696014 -7.46977615)"/><rect x="9" y="224" width="174" height="24" rx="12" fill="url(#accentA)" opacity="0.18" data-layer-name="rect 67" transform="matrix(1 0 0 1 42.01696014 -7.46977615)"/><path d="M10 10V250" stroke="#223b5f" stroke-width="1.2" data-layer-name="path 68" transform="matrix(1 0 0 1 42.01696014 -7.46977615)"/><path d="M40 10V250" stroke="#223b5f" stroke-width="1.2" data-layer-name="path 69" transform="matrix(1 0 0 1 42.01696014 -7.46977615)"/><path d="M70 10V250" stroke="#223b5f" stroke-width="1.2" data-layer-name="path 70" transform="matrix(1 0 0 1 42.01696014 -7.46977615)"/><path d="M100 10V250" stroke="#223b5f" stroke-width="1.2" data-layer-name="path 71" transform="matrix(1 0 0 1 42.01696014 -7.46977615)"/><path d="M130 10V250" stroke="#223b5f" stroke-width="1.2" data-layer-name="path 72" transform="matrix(1 0 0 1 42.01696014 -7.46977615)"/><path d="M160 10V250" stroke="#223b5f" stroke-width="1.2" data-layer-name="path 73" transform="matrix(1 0 0 1 42.01696014 -7.46977615)"/><path d="M190 10V250" stroke="#223b5f" stroke-width="1.2" data-layer-name="path 74" transform="matrix(1 0 0 1 42.01696014 -7.46977615)"/><path d="M220 10V250" stroke="#223b5f" stroke-width="1.2" data-layer-name="path 75" transform="matrix(1 0 0 1 42.01696014 -7.46977615)"/><path d="M250 10V250" stroke="#223b5f" stroke-width="1.2" data-layer-name="path 76" transform="matrix(1 0 0 1 42.01696014 -7.46977615)"/><path d="M10 10H250" stroke="#223b5f" stroke-width="1.2" data-layer-name="path 77" transform="matrix(1 0 0 1 42.01696014 -7.46977615)"/><path d="M10 40H250" stroke="#223b5f" stroke-width="1.2" data-layer-name="path 78" transform="matrix(1 0 0 1 42.01696014 -7.46977615)"/><path d="M10 70H250" stroke="#223b5f" stroke-width="1.2" data-layer-name="path 79" transform="matrix(1 0 0 1 42.01696014 -7.46977615)"/><path d="M10 100H250" stroke="#223b5f" stroke-width="1.2" data-layer-name="path 80" transform="matrix(1 0 0 1 42.01696014 -7.46977615)"/><path d="M10 130H250" stroke="#223b5f" stroke-width="1.2" data-layer-name="path 81" transform="matrix(1 0 0 1 42.01696014 -7.46977615)"/><path d="M10 160H250" stroke="#223b5f" stroke-width="1.2" data-layer-name="path 82" transform="matrix(1 0 0 1 42.01696014 -7.46977615)"/><path d="M10 190H250" stroke="#223b5f" stroke-width="1.2" data-layer-name="path 83" transform="matrix(1 0 0 1 42.01696014 -7.46977615)"/><path d="M10 220H250" stroke="#223b5f" stroke-width="1.2" data-layer-name="path 84" transform="matrix(1 0 0 1 42.01696014 -7.46977615)"/><path d="M10 250H250" stroke="#223b5f" stroke-width="1.2" data-layer-name="path 85" transform="matrix(1 0 0 1 42.01696014 -7.46977615)"/><text x="25" y="25" text-anchor="middle" dominant-baseline="middle" fill="#ffffff" font-family="Manrope, Segoe UI, Arial" font-size="15" font-weight="800" data-layer-name="text 86" transform="matrix(1 0 0 1 42.01696014 -7.46977615)">A</text><text x="55" y="25" text-anchor="middle" dominant-baseline="middle" fill="#ffffff" font-family="Manrope, Segoe UI, Arial" font-size="15" font-weight="800" data-layer-name="text 87" transform="matrix(1 0 0 1 42.01696014 -7.46977615)">T</text><text x="85" y="25" text-anchor="middle" dominant-baseline="middle" fill="#ffffff" font-family="Manrope, Segoe UI, Arial" font-size="15" font-weight="800" data-layer-name="text 88" transform="matrix(1 0 0 1 42.01696014 -7.46977615)">O</text><text x="115" y="25" text-anchor="middle" dominant-baseline="middle" fill="#ffffff" font-family="Manrope, Segoe UI, Arial" font-size="15" font-weight="800" data-layer-name="text 89" transform="matrix(1 0 0 1 42.01696014 -7.46977615)">M</text><text x="145" y="25" text-anchor="middle" dominant-baseline="middle" fill="#ffffff" font-family="Manrope, Segoe UI, Arial" font-size="15" font-weight="800" data-layer-name="text 90" transform="matrix(1 0 0 1 42.01696014 -7.46977615)">O</text><text x="175" y="25" text-anchor="middle" dominant-baseline="middle" fill="#eaf3ff" font-family="Manrope, Segoe UI, Arial" font-size="15" font-weight="700" data-layer-name="text 91" transform="matrix(1 0 0 1 42.01696014 -7.46977615)">Q</text><text x="205" y="25" text-anchor="middle" dominant-baseline="middle" fill="#eaf3ff" font-family="Manrope, Segoe UI, Arial" font-size="15" font-weight="700" data-layer-name="text 92" transform="matrix(1 0 0 1 42.01696014 -7.46977615)">X</text><text x="235" y="25" text-anchor="middle" dominant-baseline="middle" fill="#eaf3ff" font-family="Manrope, Segoe UI, Arial" font-size="15" font-weight="700" data-layer-name="text 93" transform="matrix(1 0 0 1 42.01696014 -7.46977615)">Z</text><text x="25" y="55" text-anchor="middle" dominant-baseline="middle" fill="#eaf3ff" font-family="Manrope, Segoe UI, Arial" font-size="15" font-weight="700" data-layer-name="text 94" transform="matrix(1 0 0 1 42.01696014 -7.46977615)">Y</text><text x="55" y="55" text-anchor="middle" dominant-baseline="middle" fill="#eaf3ff" font-family="Manrope, Segoe UI, Arial" font-size="15" font-weight="700" data-layer-name="text 95" transform="matrix(1 0 0 1 42.01696014 -7.46977615)">E</text><text x="85" y="55" text-anchor="middle" dominant-baseline="middle" fill="#eaf3ff" font-family="Manrope, Segoe UI, Arial" font-size="15" font-weight="700" data-layer-name="text 96" transform="matrix(1 0 0 1 42.01696014 -7.46977615)">C</text><text x="115" y="55" text-anchor="middle" dominant-baseline="middle" fill="#eaf3ff" font-family="Manrope, Segoe UI, Arial" font-size="15" font-weight="700" data-layer-name="text 97" transform="matrix(1 0 0 1 42.01696014 -7.46977615)">B</text><text x="145" y="55" text-anchor="middle" dominant-baseline="middle" fill="#eaf3ff" font-family="Manrope, Segoe UI, Arial" font-size="15" font-weight="700" data-layer-name="text 98" transform="matrix(1 0 0 1 42.01696014 -7.46977615)">O</text><text x="175" y="55" text-anchor="middle" dominant-baseline="middle" fill="#eaf3ff" font-family="Manrope, Segoe UI, Arial" font-size="15" font-weight="700" data-layer-name="text 99" transform="matrix(1 0 0 1 42.01696014 -7.46977615)">N</text><text x="205" y="55" text-anchor="middle" dominant-baseline="middle" fill="#eaf3ff" font-family="Manrope, Segoe UI, Arial" font-size="15" font-weight="700" data-layer-name="text 100" transform="matrix(1 0 0 1 42.01696014 -7.46977615)">O</text><text x="235" y="55" text-anchor="middle" dominant-baseline="middle" fill="#eaf3ff" font-family="Manrope, Segoe UI, Arial" font-size="15" font-weight="700" data-layer-name="text 101" transform="matrix(1 0 0 1 42.01696014 -7.46977615)">Y</text><text x="25" y="85" text-anchor="middle" dominant-baseline="middle" fill="#ffffff" font-family="Manrope, Segoe UI, Arial" font-size="15" font-weight="800" data-layer-name="text 102" transform="matrix(1 0 0 1 42.01696014 -7.46977615)">L</text><text x="55" y="85" text-anchor="middle" dominant-baseline="middle" fill="#ffffff" font-family="Manrope, Segoe UI, Arial" font-size="15" font-weight="800" data-layer-name="text 103" transform="matrix(1 0 0 1 42.01696014 -7.46977615)">I</text><text x="85" y="85" text-anchor="middle" dominant-baseline="middle" fill="#ffffff" font-family="Manrope, Segoe UI, Arial" font-size="15" font-weight="800" data-layer-name="text 104" transform="matrix(1 0 0 1 42.01696014 -7.46977615)">G</text><text x="115" y="85" text-anchor="middle" dominant-baseline="middle" fill="#ffffff" font-family="Manrope, Segoe UI, Arial" font-size="15" font-weight="800" data-layer-name="text 105" transform="matrix(1 0 0 1 42.01696014 -7.46977615)">A</text><text x="145" y="85" text-anchor="middle" dominant-baseline="middle" fill="#ffffff" font-family="Manrope, Segoe UI, Arial" font-size="15" font-weight="800" data-layer-name="text 106" transform="matrix(1 0 0 1 42.01696014 -7.46977615)">C</text><text x="175" y="85" text-anchor="middle" dominant-baseline="middle" fill="#ffffff" font-family="Manrope, Segoe UI, Arial" font-size="15" font-weight="800" data-layer-name="text 107" transform="matrix(1 0 0 1 42.01696014 -7.46977615)">A</text><text x="205" y="85" text-anchor="middle" dominant-baseline="middle" fill="#ffffff" font-family="Manrope, Segoe UI, Arial" font-size="15" font-weight="800" data-layer-name="text 108" transform="matrix(1 0 0 1 42.01696014 -7.46977615)">O</text><text x="235" y="85" text-anchor="middle" dominant-baseline="middle" fill="#eaf3ff" font-family="Manrope, Segoe UI, Arial" font-size="15" font-weight="700" data-layer-name="text 109" transform="matrix(1 0 0 1 42.01696014 -7.46977615)">Q</text><text x="25" y="115" text-anchor="middle" dominant-baseline="middle" fill="#eaf3ff" font-family="Manrope, Segoe UI, Arial" font-size="15" font-weight="700" data-layer-name="text 110" transform="matrix(1 0 0 1 42.01696014 -7.46977615)">U</text><text x="55" y="115" text-anchor="middle" dominant-baseline="middle" fill="#eaf3ff" font-family="Manrope, Segoe UI, Arial" font-size="15" font-weight="700" data-layer-name="text 111" transform="matrix(1 0 0 1 42.01696014 -7.46977615)">O</text><text x="85" y="115" text-anchor="middle" dominant-baseline="middle" fill="#eaf3ff" font-family="Manrope, Segoe UI, Arial" font-size="15" font-weight="700" data-layer-name="text 112" transform="matrix(1 0 0 1 42.01696014 -7.46977615)">X</text><text x="115" y="115" text-anchor="middle" dominant-baseline="middle" fill="#eaf3ff" font-family="Manrope, Segoe UI, Arial" font-size="15" font-weight="700" data-layer-name="text 113" transform="matrix(1 0 0 1 42.01696014 -7.46977615)">H</text><text x="145" y="115" text-anchor="middle" dominant-baseline="middle" fill="#eaf3ff" font-family="Manrope, Segoe UI, Arial" font-size="15" font-weight="700" data-layer-name="text 114" transform="matrix(1 0 0 1 42.01696014 -7.46977615)">J</text><text x="175" y="115" text-anchor="middle" dominant-baseline="middle" fill="#eaf3ff" font-family="Manrope, Segoe UI, Arial" font-size="15" font-weight="700" data-layer-name="text 115" transform="matrix(1 0 0 1 42.01696014 -7.46977615)">S</text><text x="205" y="115" text-anchor="middle" dominant-baseline="middle" fill="#eaf3ff" font-family="Manrope, Segoe UI, Arial" font-size="15" font-weight="700" data-layer-name="text 116" transform="matrix(1 0 0 1 42.01696014 -7.46977615)">A</text><text x="235" y="115" text-anchor="middle" dominant-baseline="middle" fill="#eaf3ff" font-family="Manrope, Segoe UI, Arial" font-size="15" font-weight="700" data-layer-name="text 117" transform="matrix(1 0 0 1 42.01696014 -7.46977615)">M</text><text x="25" y="145" text-anchor="middle" dominant-baseline="middle" fill="#ffffff" font-family="Manrope, Segoe UI, Arial" font-size="15" font-weight="800" data-layer-name="text 118" transform="matrix(1 0 0 1 42.01696014 -7.46977615)">M</text><text x="55" y="145" text-anchor="middle" dominant-baseline="middle" fill="#ffffff" font-family="Manrope, Segoe UI, Arial" font-size="15" font-weight="800" data-layer-name="text 119" transform="matrix(1 0 0 1 42.01696014 -7.46977615)">O</text><text x="85" y="145" text-anchor="middle" dominant-baseline="middle" fill="#ffffff" font-family="Manrope, Segoe UI, Arial" font-size="15" font-weight="800" data-layer-name="text 120" transform="matrix(1 0 0 1 42.01696014 -7.46977615)">L</text><text x="115" y="145" text-anchor="middle" dominant-baseline="middle" fill="#ffffff" font-family="Manrope, Segoe UI, Arial" font-size="15" font-weight="800" data-layer-name="text 121" transform="matrix(1 0 0 1 42.01696014 -7.46977615)">E</text><text x="145" y="145" text-anchor="middle" dominant-baseline="middle" fill="#ffffff" font-family="Manrope, Segoe UI, Arial" font-size="15" font-weight="800" data-layer-name="text 122" transform="matrix(1 0 0 1 42.01696014 -7.46977615)">C</text><text x="175" y="145" text-anchor="middle" dominant-baseline="middle" fill="#ffffff" font-family="Manrope, Segoe UI, Arial" font-size="15" font-weight="800" data-layer-name="text 123" transform="matrix(1 0 0 1 42.01696014 -7.46977615)">U</text><text x="205" y="145" text-anchor="middle" dominant-baseline="middle" fill="#ffffff" font-family="Manrope, Segoe UI, Arial" font-size="15" font-weight="800" data-layer-name="text 124" transform="matrix(1 0 0 1 42.01696014 -7.46977615)">L</text><text x="235" y="145" text-anchor="middle" dominant-baseline="middle" fill="#ffffff" font-family="Manrope, Segoe UI, Arial" font-size="15" font-weight="800" data-layer-name="text 125" transform="matrix(1 0 0 1 42.01696014 -7.46977615)">A</text><text x="25" y="175" text-anchor="middle" dominant-baseline="middle" fill="#eaf3ff" font-family="Manrope, Segoe UI, Arial" font-size="15" font-weight="700" data-layer-name="text 126" transform="matrix(1 0 0 1 42.01696014 -7.46977615)">R</text><text x="55" y="175" text-anchor="middle" dominant-baseline="middle" fill="#eaf3ff" font-family="Manrope, Segoe UI, Arial" font-size="15" font-weight="700" data-layer-name="text 127" transform="matrix(1 0 0 1 42.01696014 -7.46977615)">A</text><text x="85" y="175" text-anchor="middle" dominant-baseline="middle" fill="#eaf3ff" font-family="Manrope, Segoe UI, Arial" font-size="15" font-weight="700" data-layer-name="text 128" transform="matrix(1 0 0 1 42.01696014 -7.46977615)">L</text><text x="115" y="175" text-anchor="middle" dominant-baseline="middle" fill="#eaf3ff" font-family="Manrope, Segoe UI, Arial" font-size="15" font-weight="700" data-layer-name="text 129" transform="matrix(1 0 0 1 42.01696014 -7.46977615)">M</text><text x="145" y="175" text-anchor="middle" dominant-baseline="middle" fill="#eaf3ff" font-family="Manrope, Segoe UI, Arial" font-size="15" font-weight="700" data-layer-name="text 130" transform="matrix(1 0 0 1 42.01696014 -7.46977615)">N</text><text x="175" y="175" text-anchor="middle" dominant-baseline="middle" fill="#eaf3ff" font-family="Manrope, Segoe UI, Arial" font-size="15" font-weight="700" data-layer-name="text 131" transform="matrix(1 0 0 1 42.01696014 -7.46977615)">O</text><text x="205" y="175" text-anchor="middle" dominant-baseline="middle" fill="#eaf3ff" font-family="Manrope, Segoe UI, Arial" font-size="15" font-weight="700" data-layer-name="text 132" transform="matrix(1 0 0 1 42.01696014 -7.46977615)">P</text><text x="235" y="175" text-anchor="middle" dominant-baseline="middle" fill="#eaf3ff" font-family="Manrope, Segoe UI, Arial" font-size="15" font-weight="700" data-layer-name="text 133" transform="matrix(1 0 0 1 42.01696014 -7.46977615)">L</text><text x="25" y="205" text-anchor="middle" dominant-baseline="middle" fill="#eaf3ff" font-family="Manrope, Segoe UI, Arial" font-size="15" font-weight="700" data-layer-name="text 134" transform="matrix(1 0 0 1 42.01696014 -7.46977615)">Q</text><text x="55" y="205" text-anchor="middle" dominant-baseline="middle" fill="#eaf3ff" font-family="Manrope, Segoe UI, Arial" font-size="15" font-weight="700" data-layer-name="text 135" transform="matrix(1 0 0 1 42.01696014 -7.46977615)">S</text><text x="85" y="205" text-anchor="middle" dominant-baseline="middle" fill="#eaf3ff" font-family="Manrope, Segoe UI, Arial" font-size="15" font-weight="700" data-layer-name="text 136" transform="matrix(1 0 0 1 42.01696014 -7.46977615)">T</text><text x="115" y="205" text-anchor="middle" dominant-baseline="middle" fill="#eaf3ff" font-family="Manrope, Segoe UI, Arial" font-size="15" font-weight="700" data-layer-name="text 137" transform="matrix(1 0 0 1 42.01696014 -7.46977615)">U</text><text x="145" y="205" text-anchor="middle" dominant-baseline="middle" fill="#eaf3ff" font-family="Manrope, Segoe UI, Arial" font-size="15" font-weight="700" data-layer-name="text 138" transform="matrix(1 0 0 1 42.01696014 -7.46977615)">V</text><text x="175" y="205" text-anchor="middle" dominant-baseline="middle" fill="#eaf3ff" font-family="Manrope, Segoe UI, Arial" font-size="15" font-weight="700" data-layer-name="text 139" transform="matrix(1 0 0 1 42.01696014 -7.46977615)">W</text><text x="205" y="205" text-anchor="middle" dominant-baseline="middle" fill="#eaf3ff" font-family="Manrope, Segoe UI, Arial" font-size="15" font-weight="700" data-layer-name="text 140" transform="matrix(1 0 0 1 42.01696014 -7.46977615)">X</text><text x="235" y="205" text-anchor="middle" dominant-baseline="middle" fill="#eaf3ff" font-family="Manrope, Segoe UI, Arial" font-size="15" font-weight="700" data-layer-name="text 141" transform="matrix(1 0 0 1 42.01696014 -7.46977615)">A</text><text x="25" y="235" text-anchor="middle" dominant-baseline="middle" fill="#ffffff" font-family="Manrope, Segoe UI, Arial" font-size="15" font-weight="800" data-layer-name="text 142" transform="matrix(1 0 0 1 42.01696014 -7.46977615)">I</text><text x="55" y="235" text-anchor="middle" dominant-baseline="middle" fill="#ffffff" font-family="Manrope, Segoe UI, Arial" font-size="15" font-weight="800" data-layer-name="text 143" transform="matrix(1 0 0 1 42.01696014 -7.46977615)">O</text><text x="85" y="235" text-anchor="middle" dominant-baseline="middle" fill="#ffffff" font-family="Manrope, Segoe UI, Arial" font-size="15" font-weight="800" data-layer-name="text 144" transform="matrix(1 0 0 1 42.01696014 -7.46977615)">N</text><text x="115" y="235" text-anchor="middle" dominant-baseline="middle" fill="#ffffff" font-family="Manrope, Segoe UI, Arial" font-size="15" font-weight="800" data-layer-name="text 145" transform="matrix(1 0 0 1 42.01696014 -7.46977615)">I</text><text x="145" y="235" text-anchor="middle" dominant-baseline="middle" fill="#ffffff" font-family="Manrope, Segoe UI, Arial" font-size="15" font-weight="800" data-layer-name="text 146" transform="matrix(1 0 0 1 42.01696014 -7.46977615)">C</text><text x="175" y="235" text-anchor="middle" dominant-baseline="middle" fill="#ffffff" font-family="Manrope, Segoe UI, Arial" font-size="15" font-weight="800" data-layer-name="text 147" transform="matrix(1 0 0 1 42.01696014 -7.46977615)">O</text><text x="205" y="235" text-anchor="middle" dominant-baseline="middle" fill="#eaf3ff" font-family="Manrope, Segoe UI, Arial" font-size="15" font-weight="700" data-layer-name="text 148" transform="matrix(1 0 0 1 42.01696014 -7.46977615)">Z</text><text x="235" y="235" text-anchor="middle" dominant-baseline="middle" fill="#eaf3ff" font-family="Manrope, Segoe UI, Arial" font-size="15" font-weight="700" data-layer-name="text 149" transform="matrix(1 0 0 1 42.01696014 -7.46977615)">R</text></g><polygon points="537.5,91.0 537.5,117.0 515.0,130.0 492.5,117.0 492.5,91.0 515.0,78.0" fill="none" stroke="#7fdcff" stroke-width="3" opacity="0.85" data-layer-name="polygon 150"/><polygon points="566.6,115.0 566.6,133.0 551.0,142.0 535.4,133.0 535.4,115.0 551.0,106.0" fill="none" stroke="#7fdcff" stroke-width="2.3" opacity="0.65" data-layer-name="polygon 151"/><circle cx="536" cy="89" r="6" fill="#78ffb9" data-layer-name="circle 153"/><circle cx="551" cy="124" r="5" fill="#89f7ff" data-layer-name="circle 154"/>    <g transform="translate(434,252)" data-layer-group="1" data-layer-name="g 155">
      
      
      
      
      
    </g>
    
      </g>
  <rect x="20" y="336" width="600" height="64" rx="18" fill="url(#bar)" stroke="#25365b" data-layer-name="rect 162"/>
  <text x="44" y="378" fill="#eaf3ff" font-family="Manrope, Segoe UI, Arial" font-size="28" font-weight="700" data-layer-name="text 163">Caça-palavras de Química</text>
</svg>