<svg xmlns="http://www.w3.org/2000/svg" width="640" height="420" viewBox="0 0 640 420">
  <defs>
    <linearGradient id="g" x1="0" y1="0" x2="1" y2="1">
      <stop offset="0%" stop-color="#0b1220"/>
      <stop offset="100%" stop-color="#15233d"/>
    </linearGradient>

    <linearGradient id="bar" x1="0" y1="0" x2="1" y2="0">
      <stop offset="0%" stop-color="#1f2f4f"/>
      <stop offset="100%" stop-color="#16243f"/>
    </linearGradient>

    <filter id="shadow" x="-20%" y="-20%" width="140%" height="140%">
      <feDropShadow dx="0" dy="8" stdDeviation="10" flood-color="#000" flood-opacity="0.28"/>
    </filter>
  </defs>

  <rect width="640" height="420" rx="28" fill="url(#g)"/>

  <g opacity="0.08" stroke="#9cc7ff" stroke-width="1">
    <path d="M0 70H640"/><path d="M0 140H640"/><path d="M0 210H640"/><path d="M0 280H640"/><path d="M0 350H640"/>
    <path d="M90 0V420"/><path d="M180 0V420"/><path d="M270 0V420"/><path d="M360 0V420"/><path d="M450 0V420"/><path d="M540 0V420"/>
  </g>

  <rect x="20" y="20" width="600" height="300" rx="24" fill="#111b2e" stroke="#223555" stroke-width="2" filter="url(#shadow)"/>

  <g transform="translate(80,42)">
    
    <g stroke="#8fd3ff" stroke-width="4" fill="none" stroke-linecap="round" stroke-linejoin="round">
      <path d="M80 230L260 230L260 70L80 70Z"/>
      <path d="M80 230L160 170L340 170L260 230"/>
      <path d="M260 70L340 10L340 170"/>
      <path d="M80 70L160 10L340 10" opacity="0.65"/>
      <path d="M160 10L160 170" opacity="0.65"/>
    </g>

    
    <g stroke="#f4c44f" stroke-width="2.7" stroke-linejoin="round" stroke-linecap="round">
      
      <polygon points="158,96 108,145 158,145" fill="#f4c44f" fill-opacity="0.16"/>
      <polygon points="158,96 206,145 158,145" fill="#f4c44f" fill-opacity="0.26"/>
      <polygon points="108,145 158,200 158,145" fill="#f4c44f" fill-opacity="0.12"/>
      <polygon points="158,145 206,145 158,200" fill="#f4c44f" fill-opacity="0.20"/>

      
      <path d="M158 96L206 145L158 200L108 145Z" fill="none"/>

      
      <path d="M158 96L158 200" fill="none"/>
      <path d="M108 145L206 145" fill="none"/>
      <path d="M158 96L182 145" fill="none" opacity="0.9"/>
      <path d="M158 200L182 145" fill="none" opacity="0.85"/>
    </g>

    
    <g stroke="#ff8fbd" stroke-width="2.7" stroke-linejoin="round" stroke-linecap="round">
      
      <polygon points="226,118 257,140 209,184" fill="#ff8fbd" fill-opacity="0.26"/>
      <polygon points="226,118 257,140 274,177" fill="#ff8fbd" fill-opacity="0.32"/>
      <polygon points="209,184 257,140 274,177" fill="#ff8fbd" fill-opacity="0.18"/>

      
      <path d="M209 184L226 118L257 140L274 177Z" fill="none"/>

      
      <path d="M226 118L247 154" fill="none"/>
      <path d="M247 154L274 177" fill="none"/>
      <path d="M209 184L257 140" fill="none" opacity="0.92"/>
    </g>
  </g>

  <rect x="20" y="336" width="600" height="64" rx="18" fill="url(#bar)" stroke="#25365b"/>
  <text x="44" y="378" fill="#eaf3ff" font-family="Manrope, Segoe UI, Arial" font-size="28" font-weight="700">Buracos e Empacotamento</text>
</svg>