<svg xmlns="http://www.w3.org/2000/svg" width="640" height="420" viewBox="0 0 640 420" preserveAspectRatio="xMidYMid meet" data-editor-original-width="640" data-editor-original-height="420" style="width: 339.2px; height: 222.6px;">
  <defs>
    <linearGradient id="g" x1="0" y1="0" x2="1" y2="1" data-layer-name="lineargradient#g">
      <stop offset="0%" stop-color="#0b1220" data-layer-name="stop 3"/>
      <stop offset="100%" stop-color="#15233d" data-layer-name="stop 4"/>
    </linearGradient>
    <linearGradient id="bar" x1="0" y1="0" x2="1" y2="0" data-layer-name="lineargradient#bar">
      <stop offset="0%" stop-color="#1f2f4f" data-layer-name="stop 6"/>
      <stop offset="100%" stop-color="#16243f" data-layer-name="stop 7"/>
    </linearGradient>
    <filter id="shadow" x="-20%" y="-20%" width="140%" height="140%" data-layer-name="filter#shadow">
      <feDropShadow dx="0" dy="8" stdDeviation="10" flood-color="#000" flood-opacity="0.28" data-layer-name="fedropshadow 9"/>
    </filter>
    <clipPath id="previewClip" data-layer-name="clippath#previewClip">
      <rect x="20" y="20" width="600" height="300" rx="24" data-layer-name="rect 11"/>
    </clipPath>
    <marker id="arrA" markerWidth="8" markerHeight="8" refX="6" refY="4" orient="auto" data-layer-name="marker#arrA">
      <path d="M0,0 L8,4 L0,8" fill="#7c5cff" data-layer-name="path 13"/>
    </marker>
    <marker id="arrB" markerWidth="8" markerHeight="8" refX="6" refY="4" orient="auto" data-layer-name="marker#arrB">
      <path d="M0,0 L8,4 L0,8" fill="#ff7aa2" data-layer-name="path 15"/>
    </marker>
  </defs>
  <rect width="640" height="420" rx="28" fill="url(#g)" data-layer-name="rect 16"/>
  <g opacity="0.08" stroke="#9cc7ff" stroke-width="1" data-layer-group="1" data-layer-name="g 17">
    <path d="M0 70H640" data-layer-name="path 18"/><path d="M0 140H640" data-layer-name="path 19"/><path d="M0 210H640" data-layer-name="path 20"/><path d="M0 280H640" data-layer-name="path 21"/><path d="M0 350H640" data-layer-name="path 22"/>
    <path d="M90 0V420" data-layer-name="path 23"/><path d="M180 0V420" data-layer-name="path 24"/><path d="M270 0V420" data-layer-name="path 25"/><path d="M360 0V420" data-layer-name="path 26"/><path d="M450 0V420" data-layer-name="path 27"/><path d="M540 0V420" data-layer-name="path 28"/>
  </g>
  <rect x="20" y="20" width="600" height="300" rx="24" fill="#111b2e" stroke="#223555" stroke-width="2" filter="url(#shadow)" data-layer-name="rect 29" transform="matrix(1 0 0 1 -3.63755894 9.04221106)"/>
  <g clip-path="url(#previewClip)" data-layer-group="1" data-layer-name="g 30">

    <g transform="translate(54,54)" data-layer-group="1" data-layer-name="g 31">
      <g fill="#172744" stroke="#284470" data-layer-group="1" data-layer-name="g 32">
        <rect x="0" y="0" width="154" height="216" rx="20" data-layer-name="rect 33" display="none"/>
        
        
      </g>
      <g transform="translate(23,26)" data-layer-group="1" data-layer-name="g 36">
        <g stroke="#8fd3ff" stroke-width="4" fill="none" data-layer-group="1" data-layer-name="g 37">
          <path d="M20 140L104 140L104 56L20 56Z" data-layer-name="path 38" transform="matrix(1 0 0 1 -39.66666794 6.66666651)"/>
          <path d="M20 140L56 114L140 114L104 140" data-layer-name="path 39" transform="matrix(1 0 0 1 -38.66443354 5.66889799)"/>
          <path d="M104 56L140 30L140 114" data-layer-name="path 40" transform="matrix(1 0 0 1 -36.99127126 5.8902452)"/>
          <path d="M20 56L56 30L140 30" opacity="0.65" data-layer-name="path 41" transform="matrix(1 0 0 1 -37.61878467 3.21688461)"/>
          <path d="M56 30L56 114" opacity="0.65" data-layer-name="path 42" transform="matrix(1 0 0 1 -37.39063191 4.55244935)"/>
        </g>
        
        
        
        
      </g>
      <g transform="translate(193,35)" data-layer-group="1" data-layer-name="g 47">
        <g stroke="#b7ffda" stroke-width="4" fill="none" data-layer-group="1" data-layer-name="g 48">
          <path d="M18 146L92 146L92 42L18 42Z" data-layer-name="path 49" transform="matrix(1 0 0 1 -1.00334775 2.00669384)"/>
          <path d="M18 146L52 120L126 120L92 146" data-layer-name="path 50" transform="matrix(1 0 0 1 -1.00334775 1.00334692)"/>
          <path d="M92 42L126 16L126 120" data-layer-name="path 51"/>
          <path d="M18 42L52 16L126 16" opacity="0.65" data-layer-name="path 52"/>
          <path d="M52 16L52 120" opacity="0.65" data-layer-name="path 53"/>
        </g>
        
        
        
      </g>
      <g transform="translate(378,32)" data-layer-group="1" data-layer-name="g 57">
        <g stroke="#7c5cff" stroke-width="4" fill="none" data-layer-group="1" data-layer-name="g 58">
          <path d="M24 152L96 152L96 46L24 46Z" data-layer-name="path 59"/>
          <path d="M24 152L74 124L146 124L96 152" data-layer-name="path 60"/>
          <path d="M96 46L146 18L146 124" data-layer-name="path 61"/>
          <path d="M24 46L74 18L146 18" opacity="0.65" data-layer-name="path 62"/>
          <path d="M74 18L74 124" opacity="0.65" data-layer-name="path 63"/>
        </g>
        
        
        
        
      </g>
    </g>
  </g>
  <rect x="20" y="336" width="600" height="64" rx="18" fill="url(#bar)" stroke="#25365b" data-layer-name="rect 68"/>
  <text x="44" y="378" fill="#eaf3ff" font-family="Manrope, Segoe UI, Arial" font-size="24" font-weight="700" data-layer-name="text 69">Classificação do sistema cristalino</text>
</svg>