<svg xmlns="http://www.w3.org/2000/svg" width="640" height="420" viewBox="0 0 640 420">
    <defs>
      <linearGradient id="g" x1="0" y1="0" x2="1" y2="1">
        <stop offset="0%" stop-color="#0b1220"/>
        <stop offset="100%" stop-color="#15233d"/>
      </linearGradient>
      <linearGradient id="bar" x1="0" y1="0" x2="1" y2="0">
        <stop offset="0%" stop-color="#1f2f4f"/>
        <stop offset="100%" stop-color="#16243f"/>
      </linearGradient>
      <filter id="shadow" x="-20%" y="-20%" width="140%" height="140%">
        <feDropShadow dx="0" dy="8" stdDeviation="10" flood-color="#000" flood-opacity="0.28"/>
      </filter>
    </defs>
    <rect width="640" height="420" rx="28" fill="url(#g)"/>
    <g opacity="0.08" stroke="#9cc7ff" stroke-width="1">
      <path d="M0 70H640"/><path d="M0 140H640"/><path d="M0 210H640"/><path d="M0 280H640"/><path d="M0 350H640"/>
      <path d="M90 0V420"/><path d="M180 0V420"/><path d="M270 0V420"/><path d="M360 0V420"/><path d="M450 0V420"/><path d="M540 0V420"/>
    </g>
    <rect x="20" y="20" width="600" height="300" rx="24" fill="#111b2e" stroke="#223555" stroke-width="2" filter="url(#shadow)"/>
    
<g transform="translate(70,46)">
  <g stroke="#8fd3ff" stroke-width="3" fill="none" opacity="0.95">
    <path d="M40 220L190 220L190 70L40 70Z"/>
    <path d="M40 220L105 170L255 170L190 220"/>
    <path d="M190 70L255 20L255 170"/>
    <path d="M40 70L105 20L255 20" opacity="0.7"/>
    <path d="M105 20L105 170" opacity="0.7"/>
  </g>
  <g fill="#b7ffda">
    <circle cx="40" cy="220" r="6"/><circle cx="190" cy="220" r="6"/><circle cx="190" cy="70" r="6"/><circle cx="40" cy="70" r="6"/>
    <circle cx="105" cy="170" r="6"/><circle cx="255" cy="170" r="6"/><circle cx="255" cy="20" r="6"/><circle cx="105" cy="20" r="6"/>
  </g>
  <g transform="translate(325,20)">
    <polygon points="88,0 176,50 176,150 88,200 0,150 0,50" fill="#1a2743" stroke="#7c5cff" stroke-width="4"/>
    <polygon points="88,28 148,63 148,137 88,172 28,137 28,63" fill="none" stroke="#ffd166" stroke-width="3" stroke-dasharray="8 8"/>
    <text x="41" y="233" fill="#eaf3ff" font-size="22" font-family="Manrope, Arial">Wigner–Seitz</text>
  </g>
</g>
    <rect x="20" y="336" width="600" height="64" rx="18" fill="url(#bar)" stroke="#25365b"/>
    <text x="44" y="378" fill="#eaf3ff" font-family="Manrope, Segoe UI, Arial" font-size="28" font-weight="700">Primitivas • Bravais • Wigner</text>
    </svg>